<svg width="604" height="546" viewBox="0 0 604 546" fill="none" xmlns="http://www.w3.org/2000/svg">
<path fill-rule="evenodd" clip-rule="evenodd" d="M299.626 0.0203611C423.896 -1.07532 559.619 41.9195 596.097 160.72C631.391 275.662 533.67 374.622 436.318 445.189C339.426 515.422 217.091 574.09 117.636 507.537C8.68546 434.63 -25.4301 289.21 18.8199 165.81C59.3839 52.6888 179.457 1.07989 299.626 0.0203611Z" fill="#D6F8F9"/>
<path d="M483.617 347.968H398.358V442.39H483.617V347.968Z" fill="#F6F6F6"/>
<path d="M527.641 347.968H483.617V442.39H527.641V347.968Z" fill="#DBDBDB"/>
<path d="M524.614 435.881C521.355 429.167 518.123 422.431 514.918 415.672L505.369 395.372L495.945 374.959C492.815 368.155 489.719 361.32 486.657 354.455C489.908 361.169 493.136 367.905 496.342 374.664L505.902 394.975L515.326 415.388C518.456 422.193 521.552 429.023 524.614 435.881Z" fill="#F6F6F6"/>
<path d="M524.614 354.466C521.552 361.331 518.456 368.166 515.326 374.97L505.902 395.383L496.342 415.694C493.144 422.438 489.915 429.171 486.657 435.892C489.681 429.042 492.777 422.211 495.945 415.4L505.369 394.986L514.918 374.675C518.116 367.916 521.348 361.18 524.614 354.466Z" fill="#F6F6F6"/>
<path d="M483.617 205.371H398.358V293.284H483.617V205.371Z" fill="#F6F6F6"/>
<path d="M527.641 205.371H483.617V293.284H527.641V205.371Z" fill="#DBDBDB"/>
<path d="M448.223 225.773H446.42H445.07L444.288 224.197L443.199 225.773L441.736 222.541L440.341 225.773H436.349H434.524L433.866 223.618L433.242 225.773H432.063V205.371H448.223V225.773Z" fill="#DBDBDB"/>
<path d="M524.614 287.67C521.355 281.418 518.123 275.146 514.918 268.856L505.369 249.951L495.945 230.956C492.815 224.613 489.719 218.251 486.657 211.87C489.908 218.115 493.136 224.386 496.342 230.684L505.902 249.554L515.326 268.539C518.456 274.912 521.552 281.289 524.614 287.67Z" fill="#F6F6F6"/>
<path d="M524.614 211.87C521.552 218.251 518.456 224.613 515.326 230.956L505.902 249.951L496.342 268.834C493.144 275.124 489.915 281.395 486.657 287.648C489.681 281.274 492.777 274.912 495.945 268.561L505.369 249.554L514.918 230.638C518.116 224.348 521.348 218.092 524.614 211.87Z" fill="#F6F6F6"/>
<path d="M478.004 278.359H468.535V287.829H478.004V278.359Z" fill="white"/>
<path d="M168.643 271.873H83.3845V359.785H168.643V271.873Z" fill="#F6F6F6"/>
<path d="M212.668 271.873H168.643V359.785H212.668V271.873Z" fill="#DBDBDB"/>
<path d="M209.696 354.183C206.43 347.923 203.198 341.651 200 335.369L190.417 316.464L180.982 297.48C177.867 291.144 174.775 284.782 171.705 278.393C174.964 284.646 178.192 290.913 181.39 297.196L190.95 316.112L200.374 335.108C203.489 341.436 206.597 347.794 209.696 354.183Z" fill="#F6F6F6"/>
<path d="M209.696 278.382C206.627 284.756 203.531 291.118 200.408 297.468L190.928 316.464L181.345 335.369C178.147 341.659 174.918 347.93 171.66 354.183C174.722 347.802 177.814 341.44 180.937 335.097L190.417 316.101L199.943 297.185C203.141 290.902 206.392 284.635 209.696 278.382Z" fill="#F6F6F6"/>
<path d="M163.029 344.861H153.56V354.33H163.029V344.861Z" fill="white"/>
<path d="M489.299 293.284H404.041V347.968H489.299V293.284Z" fill="#DBDBDB"/>
<path d="M533.324 293.284H489.299V347.968H533.324V293.284Z" fill="#C7C7C7"/>
<path d="M453.905 313.685H452.102H450.741L449.97 312.12L448.881 313.685L447.418 310.453L446.024 313.685H442.032H440.206L439.548 311.531L438.924 313.685H437.745V293.284H453.905V313.685Z" fill="white"/>
<path d="M530.296 344.713C527.03 340.744 523.797 336.76 520.599 332.76L511.051 320.739L501.627 308.673C498.497 304.636 495.401 300.591 492.339 296.538C495.597 300.508 498.825 304.492 502.023 308.491L511.584 320.512L521.008 332.579C524.138 336.616 527.234 340.661 530.296 344.713Z" fill="#DBDBDB"/>
<path d="M530.296 296.538C527.234 300.598 524.138 304.639 521.008 308.661L511.584 320.739L502.023 332.76C498.825 336.752 495.597 340.736 492.339 344.713C495.363 340.653 498.459 336.608 501.627 332.579L511.051 320.512L520.599 308.491C523.797 304.499 527.03 300.515 530.296 296.538Z" fill="#DBDBDB"/>
<path d="M163.041 217.188H77.7827V271.873H163.041V217.188Z" fill="#DBDBDB"/>
<path d="M207.077 217.188H163.052V271.873H207.077V217.188Z" fill="#C7C7C7"/>
<path d="M127.647 237.59H125.844H124.494L123.712 236.025L122.634 237.59L121.16 234.358L119.765 237.59H115.773H113.947L113.29 235.435L112.666 237.59H111.487V217.188H127.647V237.59Z" fill="white"/>
<path d="M204.026 268.618C200.767 264.649 197.539 260.664 194.341 256.665L184.747 244.644L175.368 232.544C172.238 228.506 169.142 224.461 166.08 220.409C169.346 224.378 172.578 228.363 175.777 232.362L185.325 244.383L194.749 256.45C197.91 260.509 201.002 264.566 204.026 268.618Z" fill="#DBDBDB"/>
<path d="M204.026 220.443C201.002 224.503 197.906 228.548 194.738 232.577L185.314 244.644L175.765 256.665C172.567 260.657 169.335 264.641 166.069 268.618C169.131 264.558 172.227 260.513 175.357 256.483L184.747 244.417L194.307 232.396C197.536 228.404 200.775 224.42 204.026 220.443Z" fill="#DBDBDB"/>
<path d="M157.314 359.785H72.0557V442.379H157.314V359.785Z" fill="#DBDBDB"/>
<path d="M201.338 359.785H157.314V442.379H201.338V359.785Z" fill="#C7C7C7"/>
<path d="M121.92 380.198H120.117H118.756L117.985 378.622L116.896 380.198L115.422 376.955L114.027 380.198H110.035H108.221L107.563 378.032L106.939 380.198H105.748V359.785H121.92V380.198Z" fill="white"/>
<path d="M198.356 437.468C195.089 431.473 191.857 425.455 188.659 419.414L179.111 401.269L169.675 383.033C166.545 376.985 163.449 370.88 160.387 364.718C163.653 370.713 166.885 376.732 170.083 382.772L179.632 400.917L189.068 419.153C192.16 425.232 195.256 431.337 198.356 437.468Z" fill="#DBDBDB"/>
<path d="M198.356 364.707C195.278 370.831 192.182 376.936 189.068 383.022L179.632 401.258L170.083 419.403C166.885 425.451 163.653 431.469 160.387 437.457C163.457 431.333 166.553 425.228 169.675 419.142L179.077 400.917L188.625 382.772C191.816 376.732 195.059 370.71 198.356 364.707Z" fill="#DBDBDB"/>
<path d="M101.495 393.648L86.6165 393.954L79.0637 394.09C76.5347 394.09 73.9944 394.09 71.4655 394.147H70.9665V393.648L70.8984 380.958V380.38H71.4655L86.4804 380.448C91.493 380.448 96.4942 380.572 101.495 380.629H101.813V380.935C101.813 383.079 101.711 385.222 101.666 387.343L101.495 393.648ZM101.495 393.648L101.337 387.229C101.337 385.12 101.212 383.033 101.189 380.958L101.495 381.264C96.4942 381.321 91.493 381.446 86.4804 381.446L71.4655 381.525L72.0325 380.958V393.648L71.5222 393.138C73.9944 393.138 76.4667 393.138 78.9503 393.195L86.4124 393.331L101.495 393.648Z" fill="#F6F6F6"/>
<path d="M84.7454 409.65L69.8665 409.956L62.3137 410.092C59.7847 410.092 57.2444 410.092 54.7155 410.149H54.2165V409.65L54.1484 396.983V396.404H54.7155L69.7304 396.472C74.7316 396.472 79.7442 396.597 84.7454 396.654H85.0629V396.983C85.0629 399.126 84.9722 401.269 84.9155 403.39L84.7454 409.65ZM84.7454 409.65L84.5866 403.231C84.5866 401.122 84.4619 399.035 84.4392 396.96L84.7454 397.266C79.7442 397.323 74.7316 397.448 69.7304 397.448L54.7155 397.516L55.2825 396.96L55.2258 409.65L54.7155 409.14C57.1877 409.14 59.66 409.14 62.1436 409.14L69.6057 409.276L84.7454 409.65Z" fill="#F6F6F6"/>
<path d="M403.167 179.923L388.276 180.241L380.724 180.365C378.206 180.365 375.666 180.365 373.137 180.434H372.638V179.923L372.581 167.233V166.666H373.148L388.163 166.734C393.164 166.734 398.177 166.87 403.178 166.927H403.496V167.233C403.496 169.388 403.405 171.531 403.348 173.64L403.167 179.923ZM403.167 179.923L403.008 173.516C403.008 171.395 402.883 169.308 402.86 167.233L403.167 167.539C398.165 167.539 393.153 167.721 388.152 167.732L373.137 167.8L373.704 167.233L373.636 179.923L373.137 179.413C375.609 179.413 378.081 179.413 380.554 179.481L388.016 179.606L403.167 179.923Z" fill="#F6F6F6"/>
<path d="M386.417 195.925L371.527 196.253L363.974 196.378C361.457 196.435 358.916 196.378 356.388 196.446H355.877V195.936V183.246V182.645H356.444L371.459 182.713C376.46 182.713 381.462 182.849 386.474 182.905H386.78V183.212C386.78 185.366 386.678 187.51 386.633 189.619L386.417 195.925ZM386.417 195.925L386.259 189.517C386.202 187.396 386.123 185.31 386.1 183.234L386.417 183.541C381.405 183.597 376.404 183.722 371.402 183.733L356.388 183.801L356.955 183.234L356.887 195.925L356.388 195.414C358.86 195.414 361.332 195.414 363.804 195.482L371.266 195.607L386.417 195.925Z" fill="#F6F6F6"/>
<path d="M369.724 179.923L354.845 180.241L347.292 180.365C344.763 180.365 342.234 180.365 339.694 180.434H339.195V179.923L339.127 167.233V166.666H339.694L354.709 166.734C359.721 166.734 364.722 166.87 369.724 166.927H370.041V167.233C370.041 169.388 369.939 171.531 369.894 173.64L369.724 179.923ZM369.724 179.923L369.599 173.572C369.599 171.452 369.474 169.365 369.451 167.29L369.758 167.596C364.757 167.596 359.755 167.777 354.743 167.789L339.728 167.857L340.295 167.29L340.238 179.98L339.728 179.47C342.211 179.47 344.672 179.47 347.156 179.538L354.618 179.662L369.724 179.923Z" fill="#F6F6F6"/>
<path d="M550.663 409.65L535.773 409.956L528.22 410.092C525.703 410.092 523.162 410.092 520.633 410.149H520.123V409.65L520.066 396.983V396.404H520.633L535.648 396.472C540.65 396.472 545.662 396.597 550.663 396.654H550.97V396.983C550.97 399.126 550.879 401.269 550.822 403.39L550.663 409.65ZM550.663 409.65L550.505 403.231C550.505 401.122 550.369 399.035 550.357 396.96L550.663 397.266C545.662 397.323 540.65 397.448 535.648 397.448L520.633 397.516L521.2 396.96L521.132 409.65L520.633 409.14C523.106 409.14 525.578 409.14 528.05 409.14L535.512 409.276L550.663 409.65Z" fill="#F6F6F6"/>
<path d="M533.913 99.2799L519.023 99.5861L511.47 99.7221C508.952 99.7221 506.412 99.7221 503.883 99.7788H503.418V99.2685V86.5784V86H503.996L519.011 86.068C524.013 86.068 529.014 86.1928 534.026 86.2495H534.332V86.5557C534.332 88.7104 534.23 90.8424 534.185 92.9631L533.913 99.2799ZM533.913 99.2799L533.754 92.8611C533.697 90.7517 533.618 88.665 533.595 86.5897L533.913 86.8959C528.9 86.8959 523.899 87.0774 518.898 87.0774L503.883 87.1567L504.45 86.5897L504.382 99.2799L503.883 98.7695C506.355 98.7695 508.816 98.7695 511.3 98.8376L518.762 98.9623L533.913 99.2799Z" fill="#F6F6F6"/>
<path d="M550.663 115.281L535.773 115.588L528.22 115.724C525.703 115.724 523.162 115.724 520.633 115.78H520.123V115.281L520.066 102.591V102.013H520.633L535.648 102.081C540.65 102.081 545.662 102.206 550.663 102.262H550.97V102.569C550.97 104.712 550.879 106.855 550.822 108.976L550.663 115.281ZM550.663 115.281L550.505 108.863C550.505 106.753 550.369 104.667 550.357 102.591L550.663 102.898C545.662 102.898 540.65 103.079 535.648 103.079L520.633 103.158L521.2 102.591L521.132 115.281L520.633 114.771C523.106 114.771 525.578 114.771 528.05 114.839L535.512 114.964L550.663 115.281Z" fill="#F6F6F6"/>
<path d="M101.495 99.2797L86.6165 99.5859L79.0637 99.722C76.5347 99.722 73.9944 99.722 71.4655 99.7787H70.9665V99.2684L70.8984 86.5896V86.0112H71.4655L86.4804 86.0793C91.493 86.0793 96.4942 86.204 101.495 86.2607H101.813V86.5669C101.813 88.7216 101.711 90.8537 101.666 92.9744L101.495 99.2797ZM101.495 99.2797L101.337 92.861C101.337 90.7516 101.212 88.6649 101.189 86.5896L101.495 86.8958C96.4942 86.8958 91.493 87.0772 86.4804 87.0772L71.4655 87.1566L72.0325 86.5896V99.2797L71.4655 98.7241C73.9377 98.7241 76.41 98.7241 78.8936 98.7921L86.3557 98.9168L101.495 99.2797Z" fill="#F6F6F6"/>
<path d="M64.8652 442.549L124.324 442.265L183.772 442.163L302.689 441.982L421.607 442.163L481.054 442.265L540.513 442.549L481.054 442.821L421.607 442.923L302.689 443.104L183.772 442.923L124.324 442.821L64.8652 442.549Z" fill="#263238"/>
<path d="M311.769 546C472.908 546 603.537 533.409 603.537 517.878C603.537 502.346 472.908 489.755 311.769 489.755C150.629 489.755 20 502.346 20 517.878C20 533.409 150.629 546 311.769 546Z" fill="#F6F6F6"/>
<path d="M211.828 88.8691H178.895V442.39H211.828V88.8691Z" fill="#263238"/>
<path d="M426.483 88.8691H393.55V442.39H426.483V88.8691Z" fill="#455A64"/>
<path d="M393.55 123.537H192.413V135.411H393.55V123.537Z" fill="#37474F"/>
<path d="M393.55 200.279H192.413V212.153H393.55V200.279Z" fill="#37474F"/>
<path d="M393.55 277.021H192.413V288.895H393.55V277.021Z" fill="#37474F"/>
<path d="M393.55 353.763H192.413V365.637H393.55V353.763Z" fill="#37474F"/>
<path d="M393.55 430.505H192.413V442.379H393.55V430.505Z" fill="#37474F"/>
<path d="M278.024 136.001H215.696V200.268H278.024V136.001Z" fill="#F6F6F6"/>
<path d="M310.22 136.001H278.035V200.279H310.22V136.001Z" fill="#DBDBDB"/>
<path d="M252.156 150.925H250.84H249.842L249.275 149.78L248.481 150.925L247.404 148.555L246.383 150.925H243.469H242.142L241.654 149.349L241.201 150.925H240.339V136.001H252.156V150.925Z" fill="#DBDBDB"/>
<path d="M307.997 196.174C305.615 191.638 303.253 187.052 300.909 182.418L293.934 168.594L287.039 154.713C284.771 150.071 282.503 145.421 280.235 140.764C282.616 145.3 284.979 149.885 287.323 154.52L294.309 168.344L301.204 182.225C303.494 186.859 305.759 191.509 307.997 196.174Z" fill="#F6F6F6"/>
<path d="M307.997 140.764C305.729 145.428 303.461 150.078 301.192 154.713L294.297 168.594L287.312 182.429C284.975 187.026 282.613 191.607 280.224 196.174C282.492 191.509 284.76 186.859 287.028 182.225L293.923 168.344L300.898 154.52C303.256 149.916 305.623 145.33 307.997 140.764Z" fill="#F6F6F6"/>
<path d="M273.918 189.37H267V196.288H273.918V189.37Z" fill="white"/>
<path d="M317.285 237.046H254.957V277.021H317.285V237.046Z" fill="#DBDBDB"/>
<path d="M349.469 237.046H317.284V277.021H349.469V237.046Z" fill="#C7C7C7"/>
<path d="M291.405 251.958H290.09H289.092L288.525 250.813L287.731 251.958L286.665 249.6L285.644 251.958H282.718H281.392L280.904 250.382L280.462 251.958H279.588V237.046H291.405V251.958Z" fill="white"/>
<path d="M347.258 274.64C344.862 271.736 342.499 268.826 340.17 265.907L333.185 257.118L326.289 248.295C324.021 245.347 321.753 242.391 319.485 239.427C321.882 242.33 324.244 245.241 326.573 248.159L333.559 256.948L340.454 265.771C342.752 268.72 345.02 271.676 347.258 274.64Z" fill="#DBDBDB"/>
<path d="M347.258 239.427C344.99 242.391 342.722 245.347 340.454 248.295L333.559 257.118L326.573 265.907C324.237 268.826 321.874 271.736 319.485 274.64C321.753 271.676 324.021 268.72 326.289 265.771L333.185 256.948L340.17 248.171C342.507 245.245 344.869 242.33 347.258 239.427Z" fill="#DBDBDB"/>
<path d="M539.254 509.255C538.971 506.589 508.34 440.598 505.584 438.829C504.541 438.138 494.663 442.039 482.903 447.097L482.528 447.255C480.102 448.287 435.204 460.354 435.204 460.354L455.073 503.584L501.785 490.1L502.499 489.749C502.499 489.749 525.521 509.765 528.764 511.387C532.008 513.008 539.56 511.965 539.254 509.255Z" fill="#E69387"/>
<path d="M473.932 449.807L494.345 492.209L501.694 490.089L502.42 489.749C502.42 489.749 525.441 509.765 528.673 511.386C531.905 513.008 539.492 511.965 539.175 509.3C538.857 506.635 508.26 440.632 505.504 438.875C504.461 438.183 494.583 442.073 482.823 447.142L482.472 447.301C481.871 447.561 478.582 448.514 473.932 449.807Z" fill="#F6F6F6"/>
<path d="M539.515 509.629C539.231 506.941 508.532 440.19 505.754 438.387C504.71 437.695 494.719 441.596 482.8 446.654L502.465 489.749C502.465 489.749 525.645 510.048 528.9 511.704C532.155 513.36 539.81 512.316 539.515 509.629Z" fill="#43DEE2"/>
<path d="M536.408 509.901C530.987 498.844 510.222 453.685 505.686 442.345C505.686 442.254 505.686 442.231 505.765 442.345C511.367 453.186 531.849 498.481 536.623 509.833C536.691 510.059 536.521 510.139 536.408 509.901Z" fill="#263238"/>
<path d="M524.523 508.517C523.92 507.29 523.578 505.95 523.519 504.584C523.461 503.217 523.687 501.853 524.183 500.579C525.048 498.27 526.776 496.388 529.002 495.328C529.07 495.328 529.127 495.419 529.07 495.464C527.029 496.863 525.497 498.885 524.704 501.229C523.91 503.572 523.898 506.11 524.67 508.461C524.704 508.54 524.568 508.608 524.523 508.517Z" fill="#263238"/>
<path d="M505.573 493.582C503.452 489.125 502.636 483.205 505.028 478.737C505.119 478.567 505.357 478.737 505.357 478.862C505.105 483.722 505.372 488.596 506.151 493.4C506.163 493.473 506.148 493.548 506.109 493.61C506.071 493.673 506.011 493.72 505.941 493.742C505.87 493.764 505.794 493.76 505.727 493.73C505.659 493.701 505.605 493.648 505.573 493.582Z" fill="#263238"/>
<path d="M508.51 496.417C506.389 491.96 505.573 486.052 507.965 481.583C508.056 481.402 508.294 481.583 508.294 481.708C508.042 486.565 508.309 491.435 509.088 496.236C509.1 496.308 509.085 496.383 509.047 496.445C509.008 496.508 508.948 496.555 508.878 496.577C508.807 496.599 508.731 496.595 508.664 496.566C508.596 496.536 508.542 496.483 508.51 496.417Z" fill="#263238"/>
<path d="M511.447 499.252C509.327 494.806 508.51 488.887 510.903 484.418C510.994 484.248 511.232 484.418 511.232 484.543C510.98 489.404 511.246 494.277 512.026 499.082C512.033 499.153 512.016 499.225 511.976 499.285C511.936 499.345 511.877 499.389 511.808 499.409C511.739 499.429 511.665 499.425 511.599 499.396C511.533 499.367 511.479 499.316 511.447 499.252Z" fill="#263238"/>
<path d="M514.384 502.087C512.264 497.642 511.459 491.722 513.84 487.254C513.931 487.083 514.169 487.254 514.169 487.378C513.917 492.239 514.183 497.113 514.963 501.917C514.971 501.988 514.953 502.06 514.913 502.12C514.873 502.18 514.814 502.224 514.745 502.244C514.676 502.264 514.602 502.26 514.536 502.231C514.47 502.202 514.416 502.151 514.384 502.087Z" fill="#263238"/>
<path d="M496.341 450.101C494.073 445.066 501.864 441.494 504.155 446.529C506.446 451.564 498.643 455.137 496.341 450.101Z" fill="#263238"/>
<path d="M502.284 500.533C504.291 496.689 504.552 492.096 505.301 487.9C505.311 487.806 505.298 487.711 505.263 487.623C505.229 487.535 505.174 487.456 505.102 487.394C505.031 487.332 504.946 487.288 504.854 487.265C504.763 487.243 504.667 487.243 504.575 487.265C504.575 487.186 504.473 487.129 504.382 487.174C500.425 489.397 497.121 492.619 494.799 496.519C493.495 498.787 492.962 502.507 495.933 503.913C498.904 505.319 501.071 502.79 502.284 500.533ZM498.632 502.45C493.552 504.242 495.23 498.129 496.364 496.474C497.048 495.412 497.806 494.4 498.632 493.446C500.363 491.498 502.191 489.639 504.11 487.877C503.611 489.919 503.305 491.983 502.896 494.047C502.341 496.496 501.433 501.463 498.632 502.45Z" fill="#263238"/>
<path d="M494.164 472.59C491.408 474.28 492.304 477.909 493.846 480.064C496.556 483.701 500.174 486.564 504.336 488.365C504.355 488.372 504.375 488.375 504.395 488.373C504.414 488.372 504.434 488.366 504.451 488.356C504.468 488.347 504.483 488.333 504.495 488.317C504.506 488.301 504.514 488.283 504.518 488.263C504.881 488.263 505.3 487.98 505.176 487.549C504.042 483.443 503.27 478.918 500.878 475.289C499.483 473.169 496.784 470.98 494.164 472.59ZM502.102 481.663C502.726 483.67 503.236 485.7 503.94 487.673C501.898 486.052 499.8 484.521 497.918 482.695C497.005 481.824 496.149 480.896 495.355 479.916C494.164 478.374 491.816 472.466 497.056 473.736C500.016 474.45 501.388 479.304 502.136 481.686L502.102 481.663Z" fill="#263238"/>
<path d="M376.256 319.503C376.256 319.503 377.084 345.371 380.962 358.118C380.962 358.118 385.192 360.386 386.462 361.134C386.462 361.134 354.323 438.092 356.149 467.736C356.75 477.444 367.75 493.4 378.83 500.306C398.472 512.532 494.38 501.803 494.38 501.803L480.465 444.148C480.465 444.148 419.826 447.55 418.295 444.238C416.356 440.076 428.423 407.71 438.073 381.411C439.037 378.758 448.745 368.937 447.611 351.223C446.749 340.25 443.922 329.521 439.264 319.548L376.256 319.503Z" fill="#37474F"/>
<path d="M469.396 450.51C456.161 450.261 445.388 451.383 432.153 451.395H417.229C416.087 451.421 414.945 451.315 413.827 451.077C412.773 450.903 411.822 450.341 411.162 449.501C410.289 448.185 410.754 446.518 411.06 445.101C411.725 441.993 412.481 438.901 413.328 435.824C416.662 423.349 421.017 411.124 425.111 398.865L431.325 379.972C431.836 378.441 432.346 376.898 432.992 375.435C433.609 374.072 434.306 372.747 435.079 371.466C436.576 369.015 437.779 366.396 438.663 363.664C442.246 351.904 438.81 339.735 434.626 328.633C434.059 327.147 433.491 325.661 432.868 324.187C432.868 324.085 432.664 324.13 432.709 324.244C436.519 335.959 441.067 348.15 438.504 360.647C437.913 363.589 436.884 366.425 435.453 369.062C434.716 370.4 433.911 371.704 433.185 373.054C432.472 374.431 431.855 375.856 431.337 377.318C429.069 383.521 427.118 389.793 425.02 396.098C420.835 408.573 416.435 420.957 412.954 433.624C412.092 436.777 411.287 439.952 410.572 443.139C410.05 445.498 408.871 448.696 410.924 450.646C412.432 452.075 414.791 452.245 416.753 452.268C420.053 452.268 423.342 452.268 426.642 452.268C440.058 452.268 467.763 451.134 469.43 451.077C469.505 451.073 469.575 451.039 469.625 450.982C469.675 450.926 469.701 450.852 469.696 450.777C469.692 450.701 469.658 450.631 469.601 450.581C469.545 450.531 469.471 450.506 469.396 450.51Z" fill="#263238"/>
<path d="M484.218 499.048C482.925 492.312 481.678 485.541 480.192 478.85C478.707 472.159 477.085 465.446 475.35 458.789C474.851 456.906 474.352 455.035 473.842 453.118C473.603 452.223 473.365 451.338 473.104 450.442C472.885 449.53 472.609 448.632 472.277 447.754C472.277 447.664 472.106 447.754 472.118 447.811C472.301 449.554 472.608 451.283 473.036 452.982C473.365 454.604 473.671 456.237 474.012 457.859C474.707 461.2 475.414 464.538 476.132 467.873C477.595 474.552 479.251 481.175 480.952 487.798C481.927 491.552 482.891 495.317 483.878 499.071C483.935 499.354 484.264 499.309 484.218 499.048Z" fill="#263238"/>
<path d="M367.16 413.778L435.204 389.123C436.157 386.503 437.109 383.906 438.039 381.366C438.969 378.826 448.711 368.891 447.588 351.166C446.732 340.196 443.905 329.47 439.241 319.503H376.256C376.256 319.503 377.072 345.371 380.962 358.061C380.962 358.061 385.192 360.329 386.462 361.089C386.462 361.134 375.847 386.537 367.16 413.778Z" fill="#263238"/>
<path d="M263.666 512.396C266.229 513.167 338.945 510.763 341.655 508.914C342.698 508.234 342.959 497.574 342.914 484.781V484.373C342.914 481.731 336.892 437.378 336.892 437.378L285.995 438.943L295.986 485.439V486.233C295.986 486.233 268.667 499.569 265.843 501.917C263.019 504.264 261.091 511.636 263.666 512.396Z" fill="#E69387"/>
<path d="M263.666 512.407C266.229 513.178 338.945 510.763 341.655 508.914C342.699 508.222 342.971 497.573 342.914 484.781V484.373C342.914 483.647 342.461 479.837 341.78 474.609L294.036 476.468L295.941 485.405V486.199C295.941 486.199 268.509 499.569 265.741 501.917C262.974 504.264 261.092 511.636 263.666 512.407Z" fill="#F6F6F6"/>
<path d="M263.11 512.713C265.707 513.484 339.092 511.046 341.871 509.186C342.914 508.483 343.186 497.766 343.141 484.815L295.794 486.256C295.794 486.256 268.1 499.762 265.31 502.133C262.52 504.503 260.513 511.942 263.11 512.713Z" fill="#43DEE2"/>
<path d="M264.063 509.742C276.367 509.028 326.028 507.327 338.242 507.553C338.344 507.553 338.344 507.621 338.242 507.633C326.073 508.597 276.39 509.901 264.074 509.901C263.813 509.946 263.802 509.765 264.063 509.742Z" fill="#263238"/>
<path d="M269.948 499.331C271.315 499.248 272.684 499.45 273.969 499.925C275.254 500.399 276.426 501.136 277.41 502.087C279.196 503.784 280.26 506.103 280.382 508.563C280.382 508.642 280.246 508.642 280.234 508.563C279.732 506.141 278.458 503.948 276.603 502.312C274.748 500.677 272.413 499.686 269.948 499.49C269.927 499.49 269.907 499.482 269.892 499.467C269.877 499.452 269.869 499.432 269.869 499.411C269.869 499.39 269.877 499.37 269.892 499.355C269.907 499.34 269.927 499.331 269.948 499.331Z" fill="#263238"/>
<path d="M291.053 487.628C295.987 487.401 301.748 488.955 304.946 492.879C305.07 493.026 304.855 493.208 304.707 493.128C300.322 491.02 295.726 489.382 290.997 488.24C290.956 488.237 290.917 488.225 290.882 488.206C290.846 488.187 290.814 488.162 290.788 488.131C290.763 488.1 290.743 488.064 290.731 488.025C290.719 487.987 290.715 487.946 290.719 487.906C290.723 487.866 290.734 487.827 290.753 487.791C290.772 487.755 290.798 487.723 290.829 487.698C290.86 487.672 290.895 487.652 290.934 487.64C290.973 487.628 291.013 487.624 291.053 487.628Z" fill="#263238"/>
<path d="M287.3 489.238C292.233 489.012 297.994 490.554 301.192 494.489C301.317 494.636 301.102 494.807 300.954 494.739C296.571 492.626 291.975 490.987 287.243 489.851C287.162 489.843 287.087 489.804 287.035 489.741C286.983 489.678 286.958 489.597 286.965 489.516C286.973 489.435 287.012 489.36 287.075 489.308C287.138 489.256 287.219 489.231 287.3 489.238Z" fill="#263238"/>
<path d="M283.547 490.849C288.48 490.622 294.241 492.164 297.439 496.1C297.564 496.247 297.348 496.417 297.201 496.349C292.817 494.236 288.221 492.598 283.49 491.461C283.409 491.454 283.334 491.414 283.282 491.351C283.23 491.289 283.204 491.208 283.212 491.127C283.22 491.045 283.259 490.971 283.322 490.918C283.384 490.866 283.465 490.841 283.547 490.849Z" fill="#263238"/>
<path d="M279.792 492.459C284.726 492.232 290.487 493.774 293.685 497.71C293.809 497.857 293.594 498.027 293.447 497.959C289.063 495.846 284.467 494.208 279.736 493.071C279.695 493.068 279.656 493.056 279.621 493.037C279.585 493.018 279.553 492.993 279.527 492.962C279.502 492.93 279.482 492.895 279.47 492.856C279.458 492.817 279.454 492.777 279.458 492.737C279.462 492.697 279.473 492.657 279.492 492.622C279.511 492.586 279.537 492.554 279.568 492.529C279.599 492.503 279.634 492.483 279.673 492.471C279.712 492.459 279.752 492.455 279.792 492.459Z" fill="#263238"/>
<path d="M334.715 495.963C340.249 495.793 340.521 504.389 334.976 504.559C329.43 504.729 329.181 496.133 334.715 495.963Z" fill="#263238"/>
<path d="M285.928 481.867C288.706 485.212 292.823 487.242 296.418 489.544C296.501 489.588 296.594 489.613 296.688 489.615C296.782 489.616 296.876 489.596 296.961 489.555C297.046 489.515 297.12 489.454 297.177 489.379C297.235 489.305 297.274 489.217 297.291 489.125C297.371 489.125 297.45 489.125 297.439 488.977C296.93 484.461 295.241 480.158 292.54 476.502C290.929 474.404 287.72 472.488 285.293 474.643C282.866 476.797 284.318 479.916 285.928 481.867ZM285.565 477.795C285.883 472.42 290.85 476.378 291.973 477.965C292.683 479.011 293.323 480.102 293.889 481.231C295.091 483.5 295.942 486.017 296.906 488.444C295.216 487.197 293.424 486.108 291.689 484.928C289.625 483.534 285.395 480.766 285.565 477.795Z" fill="#263238"/>
<path d="M314.823 485.246C314.336 482.048 310.639 481.47 308.019 482.06C303.617 483.149 299.577 485.374 296.304 488.513C296.288 488.524 296.274 488.539 296.265 488.557C296.256 488.575 296.251 488.595 296.251 488.615C296.251 488.635 296.256 488.654 296.265 488.672C296.274 488.69 296.288 488.705 296.304 488.717C296.255 488.799 296.227 488.892 296.221 488.988C296.215 489.084 296.233 489.179 296.271 489.267C296.31 489.355 296.37 489.432 296.444 489.492C296.519 489.552 296.607 489.593 296.701 489.613C300.931 490.123 305.399 491.2 309.663 490.395C312.226 489.976 315.288 488.274 314.823 485.246ZM303.347 489.068C301.26 488.875 299.196 488.569 297.098 488.445C299.344 487.12 301.657 485.913 304.027 484.827C305.177 484.31 306.364 483.878 307.577 483.534C309.459 483.024 315.81 483.148 312.623 487.492C310.854 489.885 305.842 489.318 303.347 489.068Z" fill="#263238"/>
<path d="M291.836 481.855H348.777C348.777 481.855 338.639 404.342 341.973 399.284C343.459 397.016 417.377 404.467 439.003 381.049C458.77 359.626 438.652 319.503 438.652 319.503H377.979C377.979 319.503 376.743 336.707 373.443 343.579C372.048 346.528 304.265 342.32 293.651 361.724C279.543 387.569 291.836 481.855 291.836 481.855Z" fill="#37474F"/>
<path d="M342.778 471.025C336.348 470.832 329.907 470.583 323.499 470.594C317.092 470.606 310.605 470.73 304.152 470.98C302.338 471.059 296.962 471.309 296.1 471.377C295.219 471.395 294.341 471.471 293.469 471.604C293.367 471.604 293.39 471.762 293.469 471.774C294.864 472.012 309.437 472.182 312.635 472.182C319.043 472.182 325.439 472.012 331.846 471.785C335.49 471.664 339.131 471.528 342.767 471.377C342.96 471.365 342.983 471.037 342.778 471.025Z" fill="#263238"/>
<path d="M380.486 338.079C380.747 336.253 380.985 334.427 381.2 332.613C381.688 328.451 382.119 324.255 382.244 320.07C382.244 319.741 381.79 319.775 381.756 320.07C381.359 323.302 381.064 326.546 380.701 329.778C380.339 333.01 380.055 336.242 379.454 339.417C379.272 340.37 378.864 341.969 377.651 341.992C376.006 341.992 375.689 339.792 375.553 338.589C375.245 335.575 375.189 332.541 375.383 329.517C375.564 326.115 375.995 322.645 376.381 319.231C376.381 319.106 376.188 319.084 376.165 319.231C374.748 325.888 373.387 332.84 374.566 339.644C374.607 340.328 374.833 340.989 375.221 341.554C375.609 342.119 376.143 342.569 376.766 342.854H376.834C376.832 342.891 376.832 342.929 376.834 342.967C376.834 343.16 376.834 343.353 376.834 343.545C376.823 343.708 376.823 343.871 376.834 344.033C376.834 344.373 376.834 344.702 376.834 345.042C376.834 345.108 376.861 345.172 376.907 345.219C376.954 345.265 377.018 345.292 377.084 345.292C377.15 345.292 377.213 345.265 377.26 345.219C377.307 345.172 377.333 345.108 377.333 345.042C377.376 345.036 377.415 345.015 377.446 344.985C377.477 344.954 377.497 344.915 377.503 344.872C377.628 344.22 377.628 343.551 377.503 342.899C377.909 342.898 378.307 342.794 378.661 342.595C379.014 342.397 379.311 342.111 379.522 341.765C380.117 340.625 380.447 339.365 380.486 338.079Z" fill="#263238"/>
<path d="M374.453 343.001C379.108 346.195 383.475 349.788 387.506 353.741C387.542 353.769 387.565 353.811 387.57 353.857C387.576 353.903 387.563 353.949 387.534 353.985C387.506 354.021 387.464 354.044 387.418 354.049C387.372 354.055 387.326 354.042 387.29 354.013C382.845 350.611 378.218 347.209 374.033 343.534C373.97 343.476 373.931 343.397 373.925 343.311C373.918 343.226 373.944 343.141 373.997 343.074C374.049 343.006 374.126 342.962 374.21 342.948C374.295 342.935 374.382 342.954 374.453 343.001Z" fill="#263238"/>
<path d="M424.329 346.301C423.015 346.305 421.703 346.207 420.405 346.006C419.256 345.777 418.12 345.485 417.003 345.133C414.905 344.521 412.342 343.783 410.811 342.116C409.325 340.297 408.138 338.253 407.295 336.061C406.237 333.77 405.54 331.329 405.231 328.825C405.231 328.723 405.038 328.723 405.05 328.825C405.213 331.415 405.646 333.98 406.342 336.48C406.723 337.722 407.201 338.931 407.771 340.098C408.284 341.273 408.968 342.366 409.801 343.341C411.502 345.167 414.269 346.063 416.606 346.539C419.159 347.004 421.775 347.004 424.329 346.539C424.544 346.562 424.487 346.312 424.329 346.301Z" fill="#263238"/>
<path d="M335.872 395.61C336.006 394.935 336.346 394.318 336.846 393.845C337.346 393.372 337.98 393.065 338.661 392.968C340.296 392.786 341.943 392.752 343.583 392.866C347.371 392.866 351.17 392.945 354.924 392.957C369.871 392.957 384.942 392.571 399.64 389.622C406.836 388.277 413.871 386.183 420.631 383.374C426.302 380.901 432.029 377.522 435.59 372.271C439.684 366.238 440.001 358.334 439.854 351.268C439.707 343.641 438.478 336.073 436.202 328.791C435.612 326.943 434.966 325.117 434.229 323.325C434.229 323.212 434.353 323.11 434.399 323.223C437.385 330.101 439.363 337.373 440.273 344.816C440.717 348.491 440.884 352.195 440.772 355.895C440.769 359.528 440.3 363.145 439.377 366.658C435.499 379.881 420.688 385.336 408.758 388.692C394.332 392.741 379.272 393.864 364.382 394.079C356.897 394.193 349.39 394.079 341.893 393.977C340.465 393.977 338.106 393.558 337.255 395.055C336.879 395.921 336.653 396.845 336.586 397.788C336.427 398.842 336.303 399.897 336.223 400.963C336.015 404.95 336.068 408.947 336.382 412.927C336.858 421.009 337.418 429.095 338.06 437.185C338.707 445.305 339.614 453.413 340.204 461.545C340.351 463.541 340.544 465.525 340.737 467.51C340.737 467.737 340.362 467.782 340.328 467.51C338.253 451.44 336.768 435.314 335.713 419.153C335.452 415.161 335.157 411.158 335.044 407.166C334.799 403.295 335.077 399.408 335.872 395.61Z" fill="#263238"/>
<path d="M372.332 398.581C377.389 398.512 382.438 398.133 387.449 397.447C392.178 396.858 396.884 396.211 401.579 395.417C409.745 394.022 418.091 392.491 425.792 389.384C430.02 387.754 433.96 385.457 437.461 382.58C437.552 382.5 437.688 382.636 437.597 382.716C431.768 388.386 424.374 391.709 416.594 393.818C407.667 396.147 398.564 397.744 389.377 398.593C383.695 399.088 377.988 399.255 372.287 399.092C372.244 399.062 372.21 399.022 372.188 398.974C372.166 398.927 372.156 398.875 372.161 398.823C372.166 398.771 372.184 398.722 372.214 398.679C372.244 398.637 372.285 398.603 372.332 398.581Z" fill="#263238"/>
<path d="M390.012 251.051C390.182 269.684 385.124 297.956 378.15 311.656C373.16 321.442 343.459 340.699 327.684 345.031C322.105 346.573 319.326 323.382 322.014 317.7C323.647 314.298 353.325 297.82 356.365 293.284C360.98 286.377 370.336 266.781 377.254 250.031C380.94 241.196 389.876 239.473 390.012 251.051Z" fill="#E69387"/>
<path d="M331.777 312.415C331.777 312.415 323.034 311.361 319.098 311.746C315.163 312.132 300.953 318.97 302.292 322.112C303.981 326.172 312.929 323.836 317.171 322.112C317.171 322.112 321.049 331.502 327.842 331.184C334.635 330.867 331.777 312.415 331.777 312.415Z" fill="#E69387"/>
<path d="M332.832 343.069C329.748 344.453 315.073 349.522 310.673 350.021C306.273 350.52 293.503 351.042 292.777 347.753C292.051 344.464 295.771 343.976 295.771 343.976C295.771 343.976 290.35 343.341 289.931 339.916C289.511 336.492 295.318 335.981 295.318 335.981C295.318 335.981 289.795 334.927 289.647 331.445C289.5 327.963 295.408 328.462 295.408 328.462C295.408 328.462 290.316 327.737 291.36 324.833C292.618 321.352 301.861 323.767 306.681 322.849C307.815 322.633 328.557 317.054 328.557 317.054L332.832 343.069Z" fill="#E69387"/>
<path d="M294.864 328.44C301.668 330.198 304.945 329.789 311.534 327.669C311.67 327.669 311.761 327.816 311.625 327.873C305.365 330.526 301.328 331.626 294.762 328.757C294.444 328.621 294.546 328.349 294.864 328.44Z" fill="#263238"/>
<path d="M294.751 335.743C301.975 336.956 305.536 336.548 312.601 334.836C312.703 334.836 312.748 334.983 312.601 335.017C305.796 337.285 301.759 338.272 294.705 336.151C294.456 336.072 294.456 335.743 294.751 335.743Z" fill="#263238"/>
<path d="M296.134 343.829C303.211 344.498 307.135 344.214 313.78 341.674C313.939 341.617 314.041 341.844 313.894 341.912C307.361 345.156 302.474 345.553 296.134 344.044C295.703 343.942 295.692 343.784 296.134 343.829Z" fill="#263238"/>
<path d="M303.12 323.075C307.328 325.672 312.737 323.075 316.978 321.692C317.04 321.67 317.106 321.663 317.171 321.672C317.236 321.681 317.297 321.706 317.351 321.744C317.404 321.781 317.447 321.832 317.477 321.89C317.507 321.948 317.523 322.012 317.523 322.078C319.417 325.899 323.193 330.753 327.65 331.422C327.677 331.422 327.703 331.433 327.722 331.452C327.741 331.471 327.752 331.497 327.752 331.524C327.752 331.551 327.741 331.577 327.722 331.596C327.703 331.616 327.677 331.626 327.65 331.626C322.774 331.558 318.668 327.09 316.865 322.769C312.544 324.232 306.999 326.614 303.109 323.11C303.075 323.098 303.098 323.064 303.12 323.075Z" fill="#263238"/>
<path d="M364.835 270.863L388.492 286.491C388.492 286.491 391.633 255.463 389.978 246.084C388.118 235.526 383.173 238.781 377.208 247.082C371.243 255.383 364.835 270.863 364.835 270.863Z" fill="#43DEE2"/>
<path opacity="0.1" d="M364.835 270.863L388.492 286.491C388.492 286.491 391.633 255.463 389.978 246.084C388.118 235.526 383.173 238.781 377.208 247.082C371.243 255.383 364.835 270.863 364.835 270.863Z" fill="black"/>
<path d="M368.465 267.144C371.754 268.72 380.939 274.844 382.448 275.842C383.253 276.375 386.372 278.609 387.177 279.131C387.279 279.199 387.177 279.346 387.063 279.278C385.521 278.292 383.877 277.452 382.323 276.477C380.769 275.502 371.209 269.605 368.397 267.257C368.351 267.212 368.465 267.098 368.465 267.144Z" fill="#263238"/>
<path d="M448.087 328.587C448.087 328.587 371.764 339.179 371.764 339.19C371.98 340.687 367.727 278.813 382.538 240.017C383.547 237.374 395.172 233.065 401.137 237.204C427.277 255.349 448.223 329.562 448.087 328.587Z" fill="#43DEE2"/>
<path opacity="0.1" d="M402.94 238.554L381.938 241.616C381.973 241.495 382.019 241.377 382.074 241.264L402.577 238.236C402.704 238.336 402.825 238.442 402.94 238.554ZM408.724 244.111L379.737 248.42C379.693 248.53 379.659 248.644 379.635 248.76L408.985 244.451L408.724 244.111ZM413.555 250.144L377.855 255.406C377.855 255.519 377.855 255.633 377.776 255.746L413.827 250.45L413.555 250.144ZM417.695 256.279L376.324 262.369L376.256 262.721L417.876 256.585L417.695 256.279ZM421.369 262.483L375.076 269.287C375.076 269.4 375.076 269.514 375.02 269.627L421.516 262.823L421.369 262.483ZM424.771 268.731L374.101 276.193C374.101 276.307 374.101 276.42 374.101 276.534L424.975 269.049C424.839 268.947 424.782 268.833 424.726 268.731H424.771ZM427.878 275.014L373.285 283.054V283.395L428.06 275.331L427.878 275.014ZM430.782 281.331L372.638 289.893V290.233L430.838 281.648C430.797 281.537 430.763 281.423 430.736 281.308L430.782 281.331ZM433.515 287.67L372.139 296.743C372.139 296.856 372.139 296.969 372.139 297.083L433.662 288.01C433.56 287.886 433.515 287.783 433.469 287.67H433.515ZM436.112 294.032L371.776 303.502C371.776 303.615 371.776 303.717 371.776 303.83L436.259 294.338C436.146 294.236 436.1 294.134 436.066 294.032H436.112ZM438.573 300.417L371.538 310.283C371.533 310.393 371.533 310.503 371.538 310.612L438.686 300.723L438.573 300.417ZM440.92 306.813L371.425 317.02C371.413 317.129 371.413 317.239 371.425 317.348L441.033 307.142C440.943 307.017 440.909 306.915 440.875 306.813H440.92ZM443.188 313.22L371.436 323.79V324.107L443.29 313.538L443.188 313.22ZM445.332 319.639L371.538 330.504C371.538 330.617 371.538 330.73 371.538 330.844L445.422 319.968L445.332 319.639ZM447.373 326.092L371.765 337.217C371.765 337.331 371.765 337.444 371.765 337.546L447.452 326.41C447.373 326.307 447.339 326.194 447.305 326.092H447.373Z" fill="black"/>
<path opacity="0.1" d="M389.343 264.184L401.352 262.483C401.352 262.483 403.621 274.81 403.621 275.15C403.621 275.49 397.848 280.174 397.327 279.981C396.805 279.788 391.123 278.212 390.942 277.861C390.76 277.509 389.343 264.184 389.343 264.184Z" fill="black"/>
<path d="M371.697 285.504H297.382V367.792H371.697V285.504Z" fill="#43DEE2"/>
<path opacity="0.1" d="M371.697 285.504H297.382V367.792H371.697V285.504Z" fill="black"/>
<path d="M259.016 367.791H297.382V285.504H259.016V367.791Z" fill="#43DEE2"/>
<path d="M328.24 303.286H329.805H330.984L331.664 301.914L332.606 303.286L333.898 300.474L335.112 303.286H338.582H340.181L340.748 301.404L341.293 303.286H342.325V285.504H328.24V303.286Z" fill="white"/>
<g opacity="0.1">
<path opacity="0.1" d="M261.659 362.121C264.509 356.27 267.325 350.403 270.107 344.521L278.431 326.818L286.653 309.036C289.375 303.109 292.07 297.155 294.739 291.175C291.904 297.026 289.088 302.897 286.29 308.787L277.966 326.478L269.801 344.26C267.042 350.195 264.328 356.149 261.659 362.121Z" fill="black"/>
<path opacity="0.1" d="M261.659 291.175C264.335 297.155 267.034 303.109 269.756 309.036L277.966 326.818L286.29 344.521C289.08 350.403 291.897 356.27 294.739 362.121C292.07 356.156 289.375 350.202 286.653 344.26L278.431 326.478L270.107 308.787C267.318 302.889 264.501 297.019 261.659 291.175Z" fill="black"/>
</g>
<path d="M384.035 303.298H309.731L297.393 285.493H371.697L384.035 303.298Z" fill="#43DEE2"/>
<g opacity="0.2">
<path opacity="0.2" d="M384.035 303.298H309.731L297.393 285.493H371.697L384.035 303.298Z" fill="black"/>
</g>
<path d="M285.066 303.309H246.802L259.141 285.504H297.393L285.066 303.309Z" fill="#43DEE2"/>
<path opacity="0.1" d="M285.066 303.309H246.802L259.141 285.504H297.393L285.066 303.309Z" fill="black"/>
<path d="M386.485 249.985C390.238 250.337 397.213 244.995 399.084 239.45C399.209 239.064 398.029 235.503 396.816 231.103C396.079 228.427 395.319 225.433 394.831 222.654C394.729 222.087 378.149 230.003 378.149 230.003C379.759 233.304 380.963 236.789 381.733 240.38C381.791 240.755 381.817 241.134 381.812 241.514C381.807 241.578 381.807 241.643 381.812 241.707C381.835 243.963 382.47 249.554 386.485 249.985Z" fill="#E69387"/>
<path d="M381.79 241.537C381.784 241.601 381.784 241.665 381.79 241.729C382.396 241.699 382.998 241.623 383.593 241.503C393.8 239.45 394.23 226.125 394.174 222.779C391.157 223.766 378.115 230.003 378.115 230.003C379.726 233.304 380.929 236.789 381.699 240.38C381.762 240.762 381.793 241.149 381.79 241.537Z" fill="#263238"/>
<path d="M394.185 200.438C396.986 206.381 396.317 224.809 392.484 229.447C386.916 236.184 376.505 238.27 370.461 231.284C364.586 224.48 365.924 200.506 370.302 196.129C376.789 189.744 390.012 191.717 394.185 200.438Z" fill="#E69387"/>
<path d="M378.24 213.729C378.24 213.729 378.33 213.798 378.33 213.843C378.251 215.09 378.33 216.519 379.464 216.973V217.041C378.104 216.803 377.968 214.898 378.24 213.729Z" fill="#263238"/>
<path d="M379.386 212.47C381.393 212.38 381.416 216.394 379.567 216.474C377.719 216.553 377.707 212.55 379.386 212.47Z" fill="#263238"/>
<path d="M371.051 213.99C371.051 213.99 370.949 214.047 370.949 214.104C371.005 215.34 370.847 216.769 369.724 217.188V217.268C371.107 217.063 371.289 215.158 371.051 213.99Z" fill="#263238"/>
<path d="M369.928 212.697C367.932 212.561 367.807 216.576 369.655 216.701C371.504 216.825 371.606 212.811 369.928 212.697Z" fill="#263238"/>
<path d="M380.939 210.622C380.411 210.477 379.892 210.299 379.386 210.089C378.811 209.974 378.29 209.676 377.9 209.239C377.806 209.077 377.768 208.89 377.793 208.705C377.818 208.52 377.903 208.349 378.036 208.218C378.333 207.991 378.686 207.849 379.058 207.807C379.429 207.765 379.805 207.825 380.145 207.98C380.888 208.182 381.527 208.656 381.937 209.307C382.025 209.459 382.066 209.635 382.055 209.81C382.044 209.986 381.981 210.155 381.875 210.296C381.768 210.436 381.623 210.542 381.456 210.6C381.29 210.658 381.11 210.666 380.939 210.622Z" fill="#263238"/>
<path d="M368.363 210.69C368.899 210.579 369.429 210.439 369.95 210.27C370.532 210.197 371.074 209.934 371.493 209.522C371.598 209.367 371.649 209.183 371.639 208.996C371.629 208.81 371.557 208.632 371.436 208.49C371.152 208.245 370.807 208.08 370.438 208.015C370.069 207.949 369.689 207.984 369.338 208.116C368.594 208.245 367.926 208.65 367.467 209.25C367.348 209.394 367.278 209.572 367.266 209.759C367.254 209.946 367.3 210.132 367.399 210.29C367.498 210.449 367.644 210.573 367.817 210.645C367.989 210.716 368.18 210.732 368.363 210.69Z" fill="#263238"/>
<path d="M379.476 225.252C379.182 225.547 378.887 225.943 378.433 225.989C377.97 225.989 377.512 225.884 377.095 225.683C377.095 225.683 377.016 225.683 377.038 225.751C377.219 225.994 377.461 226.185 377.74 226.303C378.02 226.42 378.326 226.461 378.626 226.42C378.882 226.349 379.11 226.203 379.282 226.001C379.454 225.798 379.561 225.549 379.59 225.286C379.613 225.24 379.511 225.206 379.476 225.252Z" fill="#263238"/>
<path d="M374.373 223.04C374.902 223.729 375.602 224.268 376.403 224.605C376.842 224.768 377.32 224.796 377.775 224.684C378.762 224.412 378.784 223.55 378.592 222.722C378.485 222.328 378.333 221.948 378.138 221.588C377.07 222.461 375.75 222.969 374.373 223.04Z" fill="#263238"/>
<path d="M376.403 224.605C376.842 224.769 377.321 224.796 377.776 224.684C378.762 224.412 378.785 223.55 378.592 222.723C378.069 222.746 377.569 222.944 377.172 223.285C376.775 223.627 376.504 224.091 376.403 224.605Z" fill="#FF99BA"/>
<path d="M367.693 202.264C368.362 200.676 369.133 199.089 370.074 198.771C371.016 198.454 371.673 200.756 373.828 200.88C376.743 201.051 378.126 198.363 382.197 198.034C388.049 197.58 390.669 202.445 390.884 210.747C391.077 218.164 395.568 218.821 395.568 218.821C395.568 218.821 398.142 202.445 393.481 197.07C388.82 191.695 378.217 189.392 371.163 194.632C368.589 196.537 367.693 202.264 367.693 202.264Z" fill="#263238"/>
<path d="M391.804 215.93C391.804 215.93 395.149 209.601 397.973 210.724C400.797 211.847 398.789 220.67 395.829 222.212C395.466 222.437 395.061 222.587 394.639 222.651C394.216 222.716 393.785 222.695 393.371 222.589C392.957 222.483 392.569 222.295 392.229 222.035C391.89 221.775 391.606 221.45 391.395 221.078L391.804 215.93Z" fill="#E69387"/>
<path d="M397.326 213.264V213.344C395.262 214.478 394.366 216.655 393.822 218.844C393.921 218.609 394.07 218.399 394.258 218.228C394.446 218.057 394.669 217.929 394.912 217.852C395.154 217.776 395.411 217.753 395.663 217.785C395.916 217.817 396.158 217.904 396.374 218.039C396.386 218.044 396.396 218.053 396.403 218.064C396.41 218.075 396.414 218.088 396.414 218.101C396.414 218.114 396.41 218.127 396.403 218.138C396.396 218.149 396.386 218.158 396.374 218.163C395.975 218.089 395.563 218.141 395.195 218.312C394.827 218.482 394.522 218.763 394.321 219.116C393.988 219.702 393.718 220.322 393.516 220.964C393.436 221.169 393.073 221.112 393.119 220.885C392.722 218.039 394.389 213.888 397.326 213.264Z" fill="#263238"/>
<path d="M411.275 251.494C418.874 268.414 435.68 303.094 431.36 316.135C425.689 333.26 396.011 352.142 388.333 357.438C384.988 359.706 368.34 338.397 369.36 334.178C370.381 329.96 401.579 305.248 403.257 302.425C404.936 299.601 397.882 271.521 396.691 255.815C395.172 236.048 404.834 237.171 411.275 251.494Z" fill="#E69387"/>
<path d="M361.66 345.621C362.568 343.761 361.592 343.273 358.258 344.884C354.924 346.494 343.198 355.68 340.34 351.314C337.482 346.948 354.244 334.223 359.971 331.967C365.698 329.71 375.734 328.054 375.734 328.054C373.001 331.207 367.025 339.417 361.66 345.621Z" fill="#E69387"/>
<path d="M396.453 350.815C388.333 359.354 378.762 370.468 365.992 374.12C364.582 374.56 363.065 374.516 361.683 373.995C356.013 375.73 353.461 373.564 353.461 373.564C347.655 373.564 345.375 370.99 345.375 370.99C345.375 370.99 338.662 372.963 336.802 369.107C334.704 364.786 344.536 362.858 349.276 358.504C360.186 348.501 372.899 331.286 375.757 328.054L396.453 350.815Z" fill="#E69387"/>
<path d="M368.09 356.065C364.929 359.02 361.572 361.76 358.043 364.264C354.009 366.769 349.794 368.967 345.432 370.842C345.296 370.899 345.375 371.092 345.523 371.058C354.3 368.274 362.145 363.135 368.204 356.201C368.363 356.043 368.249 355.918 368.09 356.065Z" fill="#263238"/>
<path d="M375.076 361.827C371.742 364.446 365.845 369.016 353.405 373.496C353.405 373.496 353.405 373.575 353.405 373.564C361.596 371.8 369.136 367.791 375.179 361.985C375.394 361.747 375.269 361.588 375.076 361.827Z" fill="#263238"/>
<path d="M378.774 364.9C372.933 369.153 368.714 371.092 361.763 373.972C361.763 373.972 361.763 374.063 361.763 374.052C370.064 371.636 372.808 369.81 378.989 365.104C379.159 364.923 379 364.741 378.774 364.9Z" fill="#263238"/>
<path d="M397.95 277.453L426.301 278.813C426.301 278.813 413.18 250.53 407.022 243.306C400.036 235.163 397.405 240.516 396.544 250.677C395.682 260.839 397.95 277.453 397.95 277.453Z" fill="#43DEE2"/>
<path opacity="0.1" d="M397.95 277.453L426.301 278.813C426.301 278.813 413.18 250.53 407.022 243.306C400.036 235.163 397.405 240.516 396.544 250.677C395.682 260.839 397.95 277.453 397.95 277.453Z" fill="black"/>
<path d="M399.232 272.371C402.861 272.054 413.873 272.655 415.698 272.734C416.651 272.734 420.484 273.109 421.437 273.143C421.561 273.143 421.527 273.335 421.437 273.335C419.6 273.267 417.762 273.392 415.925 273.335C414.088 273.279 402.872 273.086 399.243 272.508C399.231 272.502 399.22 272.492 399.212 272.481C399.205 272.47 399.2 272.456 399.199 272.443C399.198 272.429 399.2 272.415 399.206 272.403C399.212 272.39 399.221 272.379 399.232 272.371Z" fill="#263238"/>
<path d="M413.634 253.921C413.577 253.807 413.759 253.728 413.815 253.841C415.199 256.109 416.526 258.377 417.807 260.725C417.43 259.386 416.933 258.084 416.322 256.835C416.322 256.835 416.378 256.744 416.412 256.835C417.171 258.268 417.743 259.793 418.113 261.371C419.009 262.993 419.883 264.615 420.744 266.259C422.922 270.41 425.167 274.56 427.107 278.847C427.128 278.899 427.136 278.956 427.129 279.012C427.123 279.067 427.102 279.12 427.069 279.166C427.036 279.211 426.992 279.248 426.941 279.271C426.89 279.295 426.834 279.305 426.778 279.301C425.791 279.221 424.816 279.108 423.84 278.972C423.738 278.972 423.727 278.791 423.84 278.779C424.657 278.711 425.462 278.7 426.279 278.677C424.011 274.719 422.049 270.637 419.951 266.611C417.853 262.585 415.641 258.173 413.634 253.921Z" fill="#263238"/>
<path d="M396.249 265.431C395.954 263.968 395.648 262.505 395.399 261.031C395.66 262.097 395.898 263.175 396.136 264.252C396.011 262.052 395.932 259.863 395.954 257.674H396.011C396.465 260.963 396.737 264.286 397.145 267.586C397.553 270.886 397.837 274.073 398.143 277.316C398.778 277.452 399.425 277.566 400.071 277.679C400.091 277.686 400.108 277.699 400.121 277.716C400.133 277.734 400.14 277.754 400.14 277.776C400.14 277.797 400.133 277.817 400.121 277.835C400.108 277.852 400.091 277.865 400.071 277.872C399.357 277.872 398.642 277.872 397.928 277.872C397.845 277.885 397.76 277.865 397.693 277.816C397.625 277.767 397.579 277.694 397.565 277.611C396.975 273.563 396.521 269.491 396.249 265.431Z" fill="#263238"/>
<path d="M283.286 424.903H176.038V513.507H283.286V424.903Z" fill="#43DEE2"/>
<path d="M325.768 424.903H283.275V513.518H325.768V424.903Z" fill="#43DEE2"/>
<path opacity="0.1" d="M325.768 424.903H283.275V513.518H325.768V424.903Z" fill="black"/>
<path d="M322.842 507.417C319.705 501.112 316.586 494.787 313.486 488.444L304.266 469.392L295.194 450.249C292.17 443.853 289.183 437.427 286.235 430.97C289.38 437.275 292.498 443.6 295.591 449.943L304.799 468.995L313.872 488.138C316.896 494.557 319.886 500.983 322.842 507.417Z" fill="#43DEE2"/>
<path d="M322.842 431.004C319.886 437.445 316.9 443.872 313.883 450.283L304.811 469.426L295.602 488.478C292.51 494.829 289.391 501.153 286.246 507.451C289.195 501.01 292.181 494.583 295.205 488.172L304.278 469.029L313.498 449.977C316.59 443.626 319.705 437.302 322.842 431.004Z" fill="#43DEE2"/>
<path d="M237.243 444.057H235.553H234.272L233.546 442.571L232.525 444.057L231.153 441.018L229.838 444.057H226.095H224.383L223.77 442.027L223.181 444.057H222.069V424.903H237.243V444.057Z" fill="white"/>
<path d="M388.028 424.903H308.02V513.507H388.028V424.903Z" fill="#43DEE2"/>
<path d="M429.342 424.903H388.028V513.507H429.342V424.903Z" fill="#43DEE2"/>
<path opacity="0.1" d="M429.342 424.903H388.028V513.507H429.342V424.903Z" fill="black"/>
<g opacity="0.1">
<path opacity="0.1" d="M382.165 507.406C376.29 501.108 370.469 494.787 364.7 488.444L347.485 469.392L330.474 450.249C324.826 443.853 319.247 437.427 313.735 430.97C319.61 437.275 325.431 443.596 331.2 449.932L348.415 468.995L365.426 488.138C371.066 494.549 376.645 500.972 382.165 507.406Z" fill="black"/>
<path opacity="0.1" d="M382.165 431.004C376.638 437.445 371.058 443.871 365.426 450.283L348.415 469.426L331.2 488.478C325.439 494.821 319.617 501.141 313.735 507.439C319.262 501.013 324.842 494.587 330.474 488.16L347.485 469.017L364.7 449.954C370.461 443.626 376.283 437.309 382.165 431.004Z" fill="black"/>
</g>
<path d="M423.524 498.515H416.289V508.733H423.524V498.515Z" fill="white"/>
<path d="M285.259 367.599H193.91V424.892H285.259V367.599Z" fill="#43DEE2"/>
<path opacity="0.1" d="M285.259 367.599H193.91V424.892H285.259V367.599Z" fill="black"/>
<path d="M326.585 367.61H285.271V424.914H326.585V367.61Z" fill="#43DEE2"/>
<path opacity="0.2" d="M326.585 367.61H285.271V424.914H326.585V367.61Z" fill="black"/>
<path d="M323.738 421.523C320.676 417.592 317.652 413.638 314.666 409.661L305.695 397.731L296.849 385.755C293.908 381.748 291.005 377.733 288.14 373.711C291.164 377.658 294.188 381.612 297.212 385.573L306.171 397.504L315.017 409.491C317.958 413.483 320.865 417.494 323.738 421.523Z" fill="#43DEE2"/>
<path d="M323.738 373.711C320.858 377.733 317.951 381.748 315.017 385.755L306.171 397.731L297.212 409.661C294.188 413.63 291.164 417.584 288.14 421.523C291.005 417.494 293.908 413.483 296.849 409.491L305.695 397.504L314.666 385.573C317.644 381.604 320.669 377.65 323.738 373.711Z" fill="#43DEE2"/>
<path d="M231.81 124.286C231.335 128.83 229.607 133.153 226.818 136.772C224.029 140.391 220.289 143.164 216.016 144.782C211.743 146.399 207.104 146.797 202.618 145.931C198.132 145.066 193.974 142.97 190.609 139.879L178.282 141.682L184.452 131.022C182.908 127.263 182.327 123.178 182.762 119.137C183.443 112.633 186.68 106.666 191.761 102.548C196.842 98.431 203.35 96.5006 209.854 97.1818C216.359 97.8631 222.326 101.1 226.443 106.181C230.561 111.262 232.491 117.77 231.81 124.275V124.286Z" fill="white"/>
<path d="M231.81 124.286C231.322 128.821 229.6 133.136 226.832 136.761C226.128 137.66 225.371 138.516 224.564 139.324C223.741 140.132 222.87 140.889 221.955 141.592C218.294 144.35 213.941 146.042 209.378 146.479C208.248 146.586 207.11 146.609 205.976 146.547C204.835 146.521 203.697 146.403 202.574 146.196C198.04 145.34 193.831 143.244 190.417 140.14L190.712 140.231L178.385 142.113L177.5 142.261L177.942 141.467L184.078 130.784V131.204C182.628 127.678 182.007 123.866 182.263 120.062C182.519 116.258 183.646 112.564 185.556 109.265C187.466 105.966 190.108 103.149 193.279 101.032C196.45 98.9156 200.065 97.5556 203.844 97.0571C207.578 96.5336 211.382 96.875 214.962 98.0548C218.543 99.2346 221.804 101.221 224.495 103.861C227.181 106.49 229.235 109.694 230.502 113.232C231.769 116.77 232.216 120.55 231.81 124.286ZM231.81 124.286C232.209 120.571 231.748 116.814 230.463 113.305C229.179 109.796 227.105 106.63 224.403 104.05C221.7 101.47 218.44 99.5455 214.876 98.4255C211.311 97.3054 207.537 97.0196 203.844 97.5901C200.179 98.1326 196.687 99.51 193.638 101.616C190.627 103.73 188.112 106.474 186.266 109.656C184.448 112.853 183.378 116.42 183.136 120.09C182.908 123.754 183.501 127.423 184.871 130.829L184.962 131.045L184.837 131.249L178.634 141.898L178.192 141.24L190.564 139.55H190.734L190.859 139.664C194.154 142.747 198.242 144.851 202.665 145.742C203.768 145.964 204.886 146.101 206.01 146.151C209.396 146.38 212.791 145.881 215.967 144.688C218.096 143.922 220.099 142.845 221.91 141.49C222.82 140.814 223.691 140.087 224.518 139.312C225.325 138.512 226.083 137.664 226.786 136.772C229.581 133.153 231.32 128.832 231.81 124.286Z" fill="#263238"/>
<path d="M204.4 135.774L193.865 125.114L197.403 121.621L203.561 127.847L216.342 107.819L220.526 110.484L204.4 135.774Z" fill="#43DEE2"/>
<path d="M125.14 146.151C120.989 145.425 110.544 148.827 107.256 154.475C103.967 160.122 104.659 169.036 106.496 169.762C108.333 170.488 116.147 169.535 121.386 166.36C126.625 163.184 127.192 146.502 125.14 146.151Z" fill="#263238"/>
<path d="M125.152 146.173C125.288 146.173 125.299 145.901 125.152 145.912C121.545 145.98 117.746 147.364 114.367 148.509C111.554 149.279 108.934 150.631 106.678 152.479C105.632 153.418 104.805 154.575 104.252 155.868C103.7 157.161 103.436 158.558 103.48 159.963C103.418 163.356 104.222 166.709 105.816 169.705C105.816 169.784 106.02 169.705 105.986 169.705C104.069 163.785 102.289 156.527 108.061 152.172C112.96 148.373 119.413 147.682 125.152 146.173Z" fill="#263238"/>
<path d="M107.041 168.174C103.468 168.798 94.43 176.112 93.1598 182.917C91.8897 189.721 97.9002 199.678 99.692 200.336C101.484 200.994 109.139 194.087 111.52 189.154C113.108 185.865 111.52 182.168 110.624 178.482C109.218 173.073 107.63 168.083 107.041 168.174Z" fill="#263238"/>
<path d="M113.63 188.247C114.39 181.227 110.137 174.513 107.483 168.322C107.483 168.253 107.347 168.322 107.37 168.322C108.946 174.298 112.825 179.56 113.21 185.865C113.403 187.709 113.149 189.572 112.47 191.298C111.791 193.023 110.707 194.559 109.309 195.777C106.712 197.886 103.401 198.952 100.339 200.189C100.146 200.268 100.339 200.563 100.486 200.495C106.587 198.238 112.847 195.482 113.63 188.247Z" fill="#263238"/>
<path d="M106.292 168.854C106.324 168.833 106.347 168.801 106.357 168.764C106.368 168.727 106.364 168.688 106.347 168.653C106.331 168.619 106.302 168.592 106.267 168.576C106.232 168.561 106.193 168.559 106.156 168.571C101.155 171.225 95.1557 175.024 92.6494 180.331C89.9277 186.069 93.1597 191.808 96.0516 196.752H96.1537C93.3185 191.728 90.2906 185.412 93.4206 179.855C96.0856 174.978 101.574 171.429 106.292 168.854Z" fill="#263238"/>
<path d="M100.338 199.474C102.81 200.608 106.541 204.475 107.63 209.25C109.467 217.415 112.484 215.612 121.613 217.29C129.325 218.696 131.434 227.123 127.623 231.568C127.623 231.568 129.676 226.181 124.403 223.902C118.097 221.18 104.443 228.438 96.9584 220.171C87.2736 209.488 100.338 199.474 100.338 199.474Z" fill="#263238"/>
<path d="M103.797 203.058C103.695 202.945 103.866 202.763 103.979 202.865C105.071 203.829 105.982 204.981 106.667 206.267C107.54 207.969 107.687 209.862 108.424 211.598C110.33 216.02 115.773 215.555 119.765 215.612C125.095 215.68 129.541 218.674 130.198 224.242C130.203 224.253 130.205 224.264 130.204 224.275C130.203 224.286 130.199 224.297 130.193 224.307C130.187 224.316 130.178 224.324 130.168 224.329C130.158 224.335 130.147 224.338 130.136 224.338C130.125 224.338 130.114 224.335 130.104 224.329C130.094 224.324 130.085 224.316 130.079 224.307C130.073 224.297 130.069 224.286 130.068 224.275C130.067 224.264 130.069 224.253 130.074 224.242C129.835 222.547 129.141 220.947 128.067 219.614C126.993 218.28 125.578 217.262 123.972 216.667C120.786 215.533 117.327 216.429 114.072 215.839C111.804 215.442 109.536 214.625 108.402 212.539C107.867 211.345 107.46 210.098 107.188 208.819C106.573 206.639 105.405 204.654 103.797 203.058Z" fill="#263238"/>
<path d="M99.0002 200.552C99.0002 200.552 99.1249 200.552 99.0795 200.631C96.2444 203.772 93.2391 206.936 92.6267 211.325C91.9576 216.043 94.634 220.579 98.4672 223.188C102.765 226.113 107.075 224.322 111.622 223.188C114.9 222.348 118.268 221.759 121.591 222.711C121.693 222.711 121.591 222.904 121.591 222.893C116.272 221.974 111.554 223.811 106.451 224.945C104.556 225.41 102.569 225.332 100.717 224.718C98.8658 224.104 97.225 222.98 95.9836 221.475C89.5421 214.614 92.7288 206.165 99.0002 200.552Z" fill="#263238"/>
<path d="M121.829 142.522C120.615 141.115 118.427 143.021 119.674 144.427C120.922 145.833 123.031 143.917 121.829 142.522Z" fill="#43DEE2"/>
<path d="M123.042 144.892C121.84 143.497 119.64 145.402 120.899 146.797C122.157 148.192 124.256 146.355 123.042 144.892Z" fill="#43DEE2"/>
<path d="M124.641 147.046C123.427 145.652 121.239 147.545 122.486 148.952C123.734 150.358 125.877 148.453 124.641 147.046Z" fill="#43DEE2"/>
<path d="M126.512 148.907C125.31 147.512 123.11 149.417 124.369 150.812C125.628 152.207 127.726 150.313 126.512 148.907Z" fill="#43DEE2"/>
<path d="M128.701 150.46C127.488 149.065 125.299 150.97 126.546 152.365C127.794 153.76 129.903 151.866 128.701 150.46Z" fill="#43DEE2"/>
<path d="M131.037 151.56C129.824 150.165 127.635 152.059 128.883 153.465C130.13 154.872 132.239 152.966 131.037 151.56Z" fill="#43DEE2"/>
<path d="M219.233 527.694C216.613 528.511 140.053 526.855 137.263 524.995C136.186 524.303 142.752 451.78 142.752 451.78L191.301 452.71L185.778 501.214C185.778 501.214 214.028 514.607 216.886 516.977C219.743 519.348 221.864 526.878 219.233 527.694Z" fill="#E89E95"/>
<path d="M219.245 527.694C216.625 528.511 140.053 526.855 137.264 524.984C136.923 524.78 136.821 517.408 138.046 507.825C151.927 510.15 201.474 517.76 205.341 515.492C208.029 513.904 205.647 511.432 203.436 509.821C209.764 512.974 215.673 516.002 216.886 517.023C219.732 519.348 221.853 526.889 219.245 527.694Z" fill="#263238"/>
<path d="M187.151 489.59L139.52 488.921C139.52 488.921 148.956 374.755 148.593 372.555C148.026 369.765 114.208 237.136 114.208 237.136H159.707C159.707 237.136 195.577 360.749 196.87 372.645C198.956 391.879 187.151 489.59 187.151 489.59Z" fill="#37474F"/>
<path d="M143.762 478.158C146.585 477.954 149.432 477.988 152.256 477.954C155.08 477.92 157.926 477.954 160.739 477.954C166.409 478.011 172.079 478.102 177.749 478.26C179.292 478.26 180.834 478.351 182.388 478.419C183.941 478.487 185.688 478.782 187.332 478.839C187.359 478.839 187.385 478.85 187.404 478.869C187.424 478.888 187.434 478.914 187.434 478.941C187.434 478.968 187.424 478.994 187.404 479.013C187.385 479.032 187.359 479.043 187.332 479.043C185.937 479.043 184.554 479.258 183.159 479.304C181.764 479.349 180.278 479.304 178.838 479.304H170.355C164.685 479.304 159.015 479.179 153.401 478.952C150.214 478.816 146.994 478.782 143.818 478.453C143.779 478.461 143.739 478.452 143.706 478.43C143.673 478.408 143.65 478.373 143.643 478.334C143.635 478.295 143.643 478.255 143.666 478.222C143.688 478.189 143.723 478.166 143.762 478.158Z" fill="#263238"/>
<path d="M124.222 247.853C128.293 262.267 132.013 276.806 135.653 291.333C139.293 305.86 142.934 320.41 146.551 334.949C148.366 342.23 150.177 349.503 151.984 356.768C153.741 363.845 155.794 370.967 156.225 378.316C156.656 385.664 155.726 393.251 155.091 400.657C154.456 408.062 153.843 415.535 153.186 422.986C151.882 437.865 150.634 452.767 149.012 467.623C148.82 469.483 148.615 471.343 148.423 473.202C148.423 473.361 148.162 473.361 148.173 473.202C149.16 458.301 150.192 443.411 151.383 428.532C151.972 421.085 152.577 413.642 153.197 406.202C153.809 398.774 154.671 391.312 154.909 383.861C155.148 376.41 153.775 369.118 151.961 361.883C150.146 354.648 148.389 347.651 146.608 340.529C142.964 326.005 139.335 311.466 135.721 296.913C131.684 280.628 127.647 264.32 124.086 247.921C124.081 247.912 124.079 247.903 124.078 247.893C124.077 247.883 124.078 247.873 124.082 247.863C124.085 247.854 124.09 247.845 124.096 247.837C124.103 247.83 124.111 247.824 124.12 247.819C124.129 247.815 124.138 247.812 124.148 247.811C124.158 247.811 124.168 247.812 124.178 247.815C124.187 247.818 124.196 247.823 124.204 247.83C124.211 247.836 124.217 247.844 124.222 247.853Z" fill="#263238"/>
<path d="M114.208 237.148C114.208 237.148 128.724 294.032 138.874 334.076L158.232 237.148H114.208Z" fill="#263238"/>
<path d="M162.065 527.864C159.446 528.692 82.8852 527.036 80.0954 525.165C79.0181 524.473 83.01 451.916 83.01 451.916L130.924 452.846L128.656 501.395C128.656 501.395 156.905 514.777 159.763 517.159C162.621 519.54 164.685 527.059 162.065 527.864Z" fill="#E89E95"/>
<path d="M162.065 527.864C159.446 528.681 82.8851 527.036 80.0953 525.165C79.755 524.95 79.8344 517.782 80.0953 507.995C93.9762 510.32 144.294 517.941 148.139 515.662C150.827 514.085 148.456 511.613 146.245 509.991C152.573 513.144 158.482 516.183 159.695 517.204C162.553 519.518 164.685 527.059 162.065 527.864Z" fill="#263238"/>
<path d="M158.232 237.08C158.232 237.08 156.905 258.831 151.711 276.012C151.292 277.43 150.838 278.825 150.362 280.163C145.77 281.947 141.351 284.149 137.161 286.74C137.161 286.74 133.884 369.935 133.941 375.106C134.156 394.487 129.178 488.637 129.178 488.637L81.1047 488.172C81.1047 488.172 86.0946 381.707 86.1173 374.63C86.1173 363.289 96.1991 237.136 96.1991 237.136L158.232 237.08Z" fill="#37474F"/>
<path d="M147.731 266.339L148.275 262.732C148.615 260.464 149.069 258.332 149.409 256.132C150.282 251.154 151.201 246.152 152.301 241.208C152.301 241.094 152.539 241.117 152.516 241.208C152.324 243.204 152.097 245.2 151.813 247.184C151.53 249.169 151.337 251.165 151.053 253.15C150.498 257.085 149.919 261.088 149.284 264.955C149.024 266.463 148.082 269.174 150.26 269.639C151.972 270.013 153.242 268.323 153.741 266.906C154.272 265.126 154.651 263.305 154.875 261.462C155.238 259.478 155.544 257.482 155.828 255.486C156.44 251.131 157.121 246.787 157.824 242.455C157.824 242.331 158.051 242.365 158.039 242.455C157.945 246.914 157.623 251.366 157.075 255.792C156.792 257.913 156.486 260.022 156.123 262.131C155.906 264.154 155.413 266.138 154.66 268.028C154.354 268.775 153.863 269.432 153.235 269.937C152.606 270.443 151.86 270.781 151.065 270.92H150.963C150.984 270.934 151.001 270.952 151.013 270.974C151.025 270.996 151.031 271.02 151.031 271.045C151.031 271.759 151.031 272.474 150.951 273.177C150.872 273.88 150.736 274.561 150.6 275.252C150.473 275.956 150.295 276.65 150.067 277.328C149.942 277.645 149.829 277.963 149.681 278.28C149.534 278.598 149.307 278.847 149.114 279.154C149.046 279.278 148.899 279.154 148.887 279.074C148.887 278.961 148.887 278.847 148.887 278.734C148.876 278.53 148.876 278.326 148.887 278.122C148.938 277.782 149.006 277.445 149.092 277.112C149.239 276.443 149.42 275.774 149.602 275.105C149.783 274.436 149.919 273.778 150.09 273.109C150.26 272.44 150.498 271.759 150.657 271.068C150.657 271.068 150.657 271.068 150.657 271C150.016 271.03 149.382 270.864 148.838 270.524C148.295 270.183 147.869 269.684 147.617 269.094C147.422 268.181 147.461 267.233 147.731 266.339Z" fill="#263238"/>
<path d="M133.271 288.441C134.711 287.342 136.227 286.345 137.808 285.459C139.466 284.453 141.19 283.559 142.968 282.782C146.438 281.274 150.021 280.242 153.616 279.063C153.718 279.063 153.786 279.199 153.684 279.244C150.214 280.628 146.88 282.465 143.478 284.109C141.822 284.918 140.151 285.674 138.465 286.377C136.787 287.126 135.063 287.999 133.373 288.645C133.271 288.725 133.169 288.521 133.271 288.441Z" fill="#263238"/>
<path d="M106.145 258.14C108.591 258.11 111.024 257.782 113.391 257.164C114.525 256.881 115.557 256.529 116.623 256.178C117.685 255.885 118.679 255.388 119.549 254.715C121.194 253.286 121.965 251.052 122.679 249.044C123.46 246.821 124.093 244.548 124.573 242.24C124.573 242.213 124.584 242.187 124.603 242.168C124.622 242.149 124.648 242.138 124.675 242.138C124.702 242.138 124.728 242.149 124.747 242.168C124.766 242.187 124.777 242.213 124.777 242.24C124.835 244.868 124.503 247.49 123.791 250.02C123.201 252.163 122.407 254.556 120.672 256.064C118.746 257.513 116.433 258.357 114.026 258.491C111.387 258.802 108.718 258.767 106.088 258.389C106.064 258.374 106.046 258.352 106.036 258.326C106.025 258.3 106.023 258.272 106.029 258.244C106.035 258.217 106.049 258.192 106.07 258.174C106.091 258.155 106.117 258.143 106.145 258.14Z" fill="#263238"/>
<path d="M90.3472 429.643C91.1638 414.462 92.0257 399.273 92.9329 384.077C94.6794 353.854 96.3351 323.62 98.2743 293.352C99.4084 276.341 100.452 259.251 101.79 242.217C101.799 242.186 101.817 242.159 101.843 242.14C101.868 242.12 101.9 242.11 101.932 242.11C101.964 242.11 101.995 242.12 102.02 242.14C102.046 242.159 102.065 242.186 102.073 242.217C100.826 272.689 99.0115 303.059 97.2537 333.475C95.4959 363.89 93.7041 393.898 91.7535 424.109C90.7328 441.211 89.3833 458.222 88.3513 475.232C88.3566 475.248 88.3582 475.264 88.3559 475.28C88.3536 475.297 88.3475 475.312 88.3381 475.325C88.3287 475.338 88.3162 475.349 88.3017 475.357C88.2872 475.364 88.2712 475.368 88.2549 475.368C88.2386 475.368 88.2226 475.364 88.2081 475.357C88.1936 475.349 88.1811 475.338 88.1717 475.325C88.1623 475.312 88.1561 475.297 88.1539 475.28C88.1516 475.264 88.1532 475.248 88.1585 475.232C88.941 460.036 89.4854 444.84 90.3472 429.643Z" fill="#263238"/>
<path d="M83.2822 478.861C86.0946 478.657 88.9525 478.691 91.7649 478.657C94.5774 478.623 97.4352 478.657 100.248 478.657C105.918 478.714 111.588 478.805 117.259 478.963C118.801 478.963 120.355 479.054 121.897 479.122C123.439 479.19 125.197 479.485 126.841 479.542C126.869 479.542 126.894 479.553 126.914 479.572C126.933 479.591 126.944 479.617 126.944 479.644C126.944 479.671 126.933 479.697 126.914 479.716C126.894 479.735 126.869 479.746 126.841 479.746C125.458 479.746 124.063 479.961 122.668 480.007C121.273 480.052 119.788 480.007 118.347 480.007C115.524 480.007 112.677 480.007 109.876 480.007C104.206 480.007 98.5353 479.893 92.865 479.655C89.6669 479.519 86.4462 479.485 83.2708 479.168C83.2507 479.167 83.231 479.162 83.2127 479.154C83.1944 479.145 83.1779 479.133 83.1642 479.119C83.1505 479.104 83.1399 479.087 83.1329 479.068C83.1259 479.049 83.1227 479.029 83.1234 479.009C83.1241 478.989 83.1288 478.969 83.1372 478.951C83.1456 478.932 83.1575 478.916 83.1722 478.902C83.187 478.888 83.2043 478.878 83.2231 478.871C83.242 478.864 83.2621 478.861 83.2822 478.861Z" fill="#263238"/>
<path d="M138.965 187.918C143.581 199.372 161.918 236.399 173.962 239.019C181.9 240.731 213.802 237.635 219.324 230.082C221.717 226.794 217.669 203.84 213.405 204.747C209.141 205.655 183.545 209.045 180.403 208.15C177.262 207.254 153.696 180.104 144.885 173.368C129.688 161.732 136.481 181.749 138.965 187.918Z" fill="#E89E95"/>
<path d="M166.908 193.577L146.835 205.451C146.835 205.451 138.386 189.37 135.086 178.846C131.786 168.322 134.621 163.513 146.733 173.981C153.851 180.095 160.589 186.64 166.908 193.577Z" fill="#43DEE2"/>
<path d="M145.973 201.323C148.634 199.395 151.344 197.531 154.104 195.732C155.453 194.847 156.803 193.94 158.175 193.089C159.547 192.239 161.078 191.411 162.496 190.526C162.505 190.517 162.517 190.51 162.529 190.506C162.541 190.502 162.555 190.5 162.568 190.502C162.581 190.503 162.593 190.507 162.604 190.514C162.616 190.521 162.625 190.53 162.633 190.54C162.64 190.551 162.645 190.563 162.648 190.576C162.65 190.589 162.649 190.602 162.646 190.615C162.643 190.628 162.637 190.64 162.628 190.65C162.62 190.66 162.61 190.668 162.598 190.674C161.26 191.581 159.99 192.579 158.651 193.498C157.313 194.416 155.862 195.335 154.467 196.242C151.715 198.041 148.914 199.776 146.063 201.447C145.984 201.493 145.893 201.379 145.973 201.323Z" fill="#263238"/>
<path d="M165.853 251.686L161.317 226.091C161.317 226.091 168.292 213.922 164.243 205.178C162.202 200.756 144.283 173.221 136.742 167.754C129.665 162.617 119.391 168.106 115.569 172.132C100.826 187.646 96.9024 216.258 91.6177 258.196L165.853 251.686Z" fill="#43DEE2"/>
<path d="M165.467 207.719C164.908 205.878 164.083 204.128 163.018 202.525C162.666 201.924 161.884 200.677 160.931 199.225C160.666 198.525 160.363 197.84 160.024 197.172C159.465 196.188 158.961 195.174 158.516 194.133C158.516 194.031 158.311 194.133 158.368 194.201C158.843 195.196 159.267 196.214 159.638 197.252C158.039 194.825 156.361 192.33 155.635 191.309C155.635 191.219 155.442 191.309 155.499 191.389C157.03 193.396 162.054 202.196 163.267 204.43C164.437 206.637 165.041 209.1 165.025 211.598C164.995 214.187 164.66 216.764 164.027 219.275C163.959 219.479 164.175 219.593 164.254 219.389C164.993 217.575 165.474 215.666 165.683 213.718C165.973 211.722 165.9 209.69 165.467 207.719Z" fill="#263238"/>
<path d="M135.449 190.175C135.449 190.175 130.913 185.151 134.621 182.35C138.329 179.549 141.936 185.242 141.936 185.242L135.449 190.175Z" fill="#455A64"/>
<path d="M170.548 222.802L171.682 229.323L172.056 231.466L170.072 230.547L164.084 227.746L135.324 189.971L141.811 185.038L170.571 222.813L170.548 222.802Z" fill="#455A64"/>
<path d="M171.659 229.323L172.034 231.466L170.049 230.547L171.659 229.323Z" fill="#37474F"/>
<path d="M142.159 184.418L134.589 190.182L135.729 191.68L143.299 185.916L142.159 184.418Z" fill="#263238"/>
<path d="M143.424 186.077L135.854 191.842L136.995 193.34L144.565 187.575L143.424 186.077Z" fill="#263238"/>
<path d="M137.003 193.339L139.441 191.479L148.502 206.165L147.561 206.8L137.003 193.339Z" fill="#263238"/>
<path d="M108.764 180.377C90.6193 203.058 70.8526 240.788 80.7416 247.967C89.8141 254.51 120.74 245.835 139.985 236.898C143.648 235.197 126.376 202.877 122.657 205.145C118.751 207.531 114.698 209.667 110.522 211.541C109.456 211.904 114.945 204.294 120.468 186.467C126.093 168.299 119.164 167.324 108.764 180.377Z" fill="#E89E95"/>
<path d="M170.458 199.656C170.718 203.512 161.147 203.342 161.147 203.342C162.595 204.173 163.706 205.485 164.288 207.05C165.184 209.851 161.181 212.482 161.181 212.482C162.5 213.658 163.436 215.203 163.869 216.916C164.458 219.683 160.795 222.915 160.795 222.915C161.416 224.663 161.384 226.576 160.705 228.302C158.72 232.838 151.11 233.394 146.472 234.676C141.29 236.206 136.239 238.148 131.366 240.482L120.479 206.335C120.479 206.335 140.11 192.976 145.826 192.897C150.646 192.851 170.061 193.747 170.458 199.656Z" fill="#E89E95"/>
<path d="M161.056 203.228C155.93 202.094 150.52 202.094 145.315 202.286C145.291 202.286 145.268 202.296 145.251 202.313C145.234 202.33 145.224 202.353 145.224 202.377C145.224 202.401 145.234 202.424 145.251 202.441C145.268 202.458 145.291 202.468 145.315 202.468C150.498 202.275 155.862 203.466 161.033 203.477C161.05 203.479 161.066 203.477 161.082 203.472C161.097 203.467 161.112 203.459 161.125 203.449C161.137 203.438 161.148 203.425 161.155 203.411C161.163 203.396 161.168 203.38 161.169 203.364C161.171 203.347 161.169 203.331 161.164 203.315C161.159 203.299 161.151 203.285 161.141 203.272C161.13 203.26 161.117 203.249 161.103 203.242C161.088 203.234 161.072 203.229 161.056 203.228Z" fill="#263238"/>
<path d="M161.022 212.13C159.829 211.971 158.62 211.971 157.427 212.13C156.157 212.232 154.898 212.346 153.628 212.482C151.099 212.754 148.57 213.094 146.064 213.491C145.95 213.491 145.95 213.684 146.064 213.673C148.593 213.412 151.122 213.174 153.651 213.015C154.921 212.935 156.191 212.856 157.45 212.799C158.653 212.817 159.855 212.703 161.033 212.459C161.064 212.443 161.09 212.419 161.108 212.39C161.125 212.36 161.134 212.326 161.133 212.291C161.131 212.256 161.12 212.223 161.101 212.195C161.081 212.166 161.054 212.144 161.022 212.13Z" fill="#263238"/>
<path d="M160.693 222.904C159.612 222.787 158.52 222.852 157.461 223.097L154.059 223.528C151.79 223.8 149.443 224.072 147.129 224.265C147.016 224.265 147.027 224.458 147.129 224.446C149.477 224.265 151.836 224.106 154.183 223.902C155.317 223.811 156.451 223.698 157.585 223.584C158.647 223.585 159.7 223.393 160.693 223.017C160.702 223.011 160.71 223.003 160.715 222.993C160.72 222.983 160.723 222.972 160.723 222.961C160.723 222.949 160.72 222.938 160.715 222.928C160.71 222.919 160.702 222.91 160.693 222.904Z" fill="#263238"/>
<path d="M114.185 209.08L94.4978 196.605C94.4978 196.605 105.011 181.794 112.892 174.083C120.774 166.371 126.342 166.711 122.509 182.259C120.283 191.361 117.504 200.318 114.185 209.08Z" fill="#43DEE2"/>
<path d="M97.7868 193.985C100.713 195.497 103.601 197.066 106.451 198.691C107.857 199.497 109.275 200.291 110.658 201.13C112.042 201.969 113.471 202.944 114.9 203.806C115.002 203.874 114.9 204.033 114.82 203.976C113.403 203.194 111.929 202.513 110.511 201.708C109.093 200.903 107.608 200.064 106.167 199.225C103.31 197.591 100.497 195.879 97.7187 194.099C97.6394 193.985 97.7074 193.894 97.7868 193.985Z" fill="#263238"/>
<path d="M114.185 209.182C115.127 205.87 116.454 202.695 117.588 199.44C118.722 196.185 119.856 192.874 120.808 189.574C120.804 189.563 120.802 189.552 120.803 189.541C120.804 189.53 120.808 189.519 120.814 189.509C120.82 189.5 120.828 189.492 120.838 189.487C120.848 189.481 120.859 189.479 120.871 189.479C120.882 189.479 120.893 189.481 120.903 189.487C120.913 189.492 120.921 189.5 120.928 189.509C120.934 189.519 120.938 189.53 120.939 189.541C120.94 189.552 120.938 189.563 120.933 189.574C120.525 191.241 120.151 192.976 119.686 194.586C119.459 195.403 119.198 196.231 118.937 197.036C119.107 196.741 119.266 196.446 119.448 196.151C120.001 195.282 120.599 194.441 121.239 193.634C121.239 193.634 121.341 193.634 121.319 193.69C120.871 194.619 120.375 195.524 119.833 196.401C119.448 197.036 119.017 197.648 118.608 198.272L118.121 199.656C117.164 202.95 115.908 206.15 114.367 209.216C114.31 209.329 114.163 209.284 114.185 209.182Z" fill="#263238"/>
<path d="M109.751 211.768C104.727 214.376 99.0455 218.243 96.1423 221.305C96.0515 221.396 96.1423 221.543 96.2557 221.464C99.1589 219.196 107.778 213.934 110 212.448C110.692 211.983 111.191 210.996 109.751 211.768Z" fill="#263238"/>
<path d="M198.072 241.106L157.971 241.968L175.595 190.118L215.695 189.256L198.072 241.106Z" fill="#F6F6F6"/>
<path d="M200.816 241.049L160.716 241.9L178.339 190.062L218.44 189.2L200.816 241.049Z" fill="#37474F"/>
<path d="M182.603 189.971C182.345 190.874 181.742 191.64 180.925 192.103C180.551 192.318 180.437 191.819 180.812 191.615C181.332 191.312 181.732 190.84 181.946 190.277C181.946 190.175 182.014 190.073 182.036 189.982C182.121 189.662 182.121 189.326 182.036 189.007C182.004 188.867 181.924 188.742 181.81 188.655H181.73C181.641 188.634 181.547 188.634 181.458 188.655C181.284 188.719 181.128 188.824 181.004 188.961C180.849 189.125 180.715 189.308 180.608 189.506L180.437 189.801V189.869C180.433 189.903 180.433 189.937 180.437 189.971C180.434 189.997 180.434 190.024 180.437 190.05H179.87C179.996 189.691 180.172 189.351 180.392 189.041C180.557 188.772 180.778 188.543 181.04 188.368C181.303 188.194 181.6 188.079 181.912 188.032C182.138 188.025 182.359 188.104 182.529 188.253C182.7 188.403 182.807 188.611 182.83 188.837C182.849 189.228 182.772 189.617 182.603 189.971Z" fill="#C7C7C7"/>
<path d="M185.744 189.903C185.486 190.806 184.883 191.571 184.066 192.035C183.692 192.25 183.578 191.751 183.952 191.547C184.47 191.24 184.869 190.769 185.087 190.209C185.124 190.114 185.15 190.015 185.166 189.914C185.256 189.595 185.256 189.258 185.166 188.939C185.129 188.798 185.045 188.674 184.928 188.587H184.848C184.756 188.56 184.657 188.56 184.565 188.587C184.391 188.651 184.235 188.756 184.111 188.893C183.9 189.155 183.714 189.436 183.556 189.733V189.801C183.553 189.838 183.553 189.876 183.556 189.914C183.551 189.936 183.551 189.96 183.556 189.982H182.989C183.115 189.623 183.29 189.283 183.51 188.973C183.675 188.704 183.896 188.475 184.159 188.3C184.421 188.126 184.718 188.011 185.03 187.963C185.256 187.954 185.477 188.033 185.646 188.183C185.815 188.333 185.92 188.543 185.937 188.769C185.971 189.157 185.905 189.547 185.744 189.903Z" fill="#C7C7C7"/>
<path d="M188.874 189.835C188.752 190.283 188.542 190.703 188.256 191.069C187.969 191.435 187.613 191.74 187.207 191.967C186.833 192.182 186.72 191.683 187.082 191.479C187.601 191.175 188.001 190.703 188.217 190.141C188.217 190.05 188.273 189.948 188.296 189.846C188.386 189.527 188.386 189.19 188.296 188.871C188.259 188.73 188.175 188.606 188.058 188.519C188.032 188.525 188.005 188.525 187.978 188.519C187.886 188.492 187.787 188.492 187.695 188.519C187.521 188.583 187.365 188.688 187.241 188.825C187.092 188.991 186.962 189.174 186.856 189.37C186.792 189.464 186.735 189.563 186.686 189.665V189.744C186.681 189.778 186.681 189.812 186.686 189.846C186.686 189.846 186.686 189.846 186.686 189.914H186.107C186.238 189.557 186.413 189.218 186.629 188.905C186.798 188.641 187.021 188.414 187.283 188.241C187.544 188.067 187.839 187.949 188.148 187.896C188.376 187.886 188.598 187.964 188.769 188.114C188.94 188.264 189.047 188.474 189.067 188.701C189.097 189.089 189.031 189.478 188.874 189.835Z" fill="#C7C7C7"/>
<path d="M192.016 189.767C191.894 190.215 191.684 190.635 191.397 191.001C191.111 191.367 190.755 191.672 190.349 191.899C189.963 192.114 189.85 191.615 190.224 191.411C190.744 191.108 191.144 190.635 191.358 190.073C191.394 189.98 191.424 189.885 191.449 189.789C191.539 189.467 191.539 189.125 191.449 188.803C191.417 188.662 191.337 188.538 191.222 188.451H191.097C191.005 188.423 190.906 188.423 190.814 188.451C190.641 188.517 190.486 188.621 190.36 188.757C190.207 188.92 190.077 189.103 189.975 189.302C189.909 189.398 189.852 189.501 189.805 189.608V189.676C189.801 189.71 189.801 189.744 189.805 189.778C189.805 189.778 189.805 189.778 189.805 189.846H189.238C189.368 189.492 189.544 189.157 189.759 188.848C189.924 188.578 190.145 188.347 190.407 188.171C190.67 187.995 190.967 187.878 191.279 187.827C191.506 187.818 191.728 187.896 191.899 188.046C192.071 188.196 192.177 188.406 192.197 188.633C192.231 189.02 192.169 189.409 192.016 189.767Z" fill="#C7C7C7"/>
<path d="M195.157 189.71C194.899 190.613 194.296 191.379 193.478 191.842C193.104 192.046 192.991 191.547 193.365 191.354C193.883 191.043 194.282 190.568 194.499 190.005C194.535 189.912 194.565 189.817 194.59 189.721C194.674 189.398 194.674 189.058 194.59 188.734C194.56 188.596 194.479 188.475 194.363 188.394H194.284C194.195 188.366 194.1 188.366 194.012 188.394C193.839 188.46 193.683 188.565 193.558 188.7C193.405 188.866 193.272 189.049 193.161 189.245L192.991 189.551V189.619C192.987 189.653 192.987 189.687 192.991 189.721C192.991 189.721 192.991 189.721 192.991 189.789H192.424C192.55 189.434 192.726 189.098 192.945 188.791C193.114 188.525 193.336 188.296 193.598 188.121C193.859 187.945 194.155 187.826 194.465 187.771C194.692 187.764 194.912 187.843 195.083 187.992C195.253 188.142 195.361 188.35 195.384 188.576C195.401 188.967 195.323 189.356 195.157 189.71Z" fill="#C7C7C7"/>
<path d="M198.355 189.642C198.094 190.543 197.492 191.308 196.677 191.774C196.303 191.978 196.189 191.479 196.563 191.286C197.084 190.978 197.484 190.502 197.698 189.937C197.734 189.845 197.761 189.75 197.777 189.653C197.866 189.33 197.866 188.989 197.777 188.666C197.743 188.53 197.662 188.41 197.55 188.326H197.471C197.378 188.299 197.28 188.299 197.187 188.326C197.016 188.394 196.861 188.499 196.734 188.632C196.584 188.798 196.454 188.981 196.348 189.177C196.285 189.275 196.228 189.377 196.178 189.483V189.551C196.174 189.585 196.174 189.619 196.178 189.653C196.173 189.675 196.173 189.699 196.178 189.721H195.611C195.737 189.366 195.913 189.03 196.132 188.723C196.301 188.457 196.523 188.228 196.785 188.053C197.046 187.877 197.342 187.758 197.652 187.702C197.878 187.693 198.099 187.772 198.268 187.922C198.438 188.072 198.542 188.282 198.559 188.508C198.59 188.897 198.52 189.288 198.355 189.642Z" fill="#C7C7C7"/>
<path d="M201.429 189.574C201.175 190.476 200.576 191.242 199.762 191.706C199.387 191.91 199.274 191.422 199.648 191.218C199.955 191.048 200.222 190.815 200.432 190.533C200.641 190.251 200.787 189.928 200.862 189.585C200.951 189.262 200.951 188.921 200.862 188.598C200.828 188.459 200.743 188.337 200.623 188.258H200.544C200.452 188.231 200.353 188.231 200.261 188.258C200.089 188.326 199.934 188.431 199.807 188.564C199.657 188.73 199.528 188.913 199.421 189.109C199.353 189.211 199.308 189.313 199.251 189.415V189.483C199.247 189.517 199.247 189.551 199.251 189.585C199.251 189.585 199.251 189.585 199.251 189.653H198.673C198.804 189.3 198.979 188.964 199.195 188.655C199.36 188.388 199.582 188.159 199.844 187.985C200.106 187.81 200.403 187.695 200.714 187.646C200.94 187.636 201.16 187.713 201.331 187.86C201.502 188.008 201.61 188.215 201.633 188.44C201.657 188.829 201.587 189.218 201.429 189.574Z" fill="#C7C7C7"/>
<path d="M204.57 189.506C204.446 189.953 204.235 190.372 203.949 190.738C203.663 191.104 203.307 191.41 202.903 191.638C202.517 191.853 202.404 191.354 202.778 191.15C203.301 190.845 203.701 190.368 203.912 189.801C203.947 189.708 203.978 189.613 204.003 189.517C204.093 189.194 204.093 188.853 204.003 188.53C203.97 188.394 203.89 188.273 203.776 188.19H203.708C203.616 188.157 203.516 188.157 203.424 188.19C203.247 188.248 203.09 188.354 202.971 188.496C202.815 188.653 202.685 188.833 202.585 189.029C202.517 189.132 202.472 189.234 202.415 189.336V189.404L202.358 189.506C202.358 189.506 202.358 189.506 202.358 189.574H201.757C201.888 189.22 202.063 188.885 202.279 188.576C202.444 188.307 202.665 188.078 202.927 187.903C203.19 187.729 203.487 187.614 203.799 187.567C204.024 187.557 204.245 187.633 204.416 187.781C204.586 187.929 204.694 188.136 204.717 188.36C204.761 188.748 204.711 189.142 204.57 189.506Z" fill="#C7C7C7"/>
<path d="M207.711 189.449C207.456 190.354 206.852 191.121 206.033 191.581C205.658 191.797 205.545 191.298 205.919 191.094C206.442 190.788 206.843 190.311 207.053 189.744C207.089 189.651 207.119 189.557 207.144 189.46C207.228 189.141 207.228 188.805 207.144 188.485C207.112 188.345 207.032 188.221 206.917 188.134H206.838C206.75 188.101 206.653 188.101 206.566 188.134C206.389 188.191 206.231 188.297 206.112 188.44C205.953 188.6 205.82 188.784 205.715 188.984C205.715 189.075 205.613 189.177 205.545 189.279V189.347C205.541 189.381 205.541 189.415 205.545 189.449C205.545 189.449 205.545 189.449 205.545 189.517H204.978C205.107 189.163 205.282 188.827 205.5 188.519C205.664 188.251 205.886 188.021 206.148 187.847C206.411 187.672 206.708 187.557 207.019 187.51C207.245 187.5 207.466 187.577 207.636 187.724C207.807 187.872 207.915 188.079 207.938 188.304C207.957 188.698 207.879 189.092 207.711 189.449Z" fill="#C7C7C7"/>
<path d="M210.83 189.37C210.572 190.273 209.969 191.038 209.152 191.502C208.777 191.717 208.664 191.218 209.038 191.014C209.558 190.706 209.958 190.23 210.172 189.664C210.208 189.572 210.238 189.477 210.263 189.381C210.347 189.061 210.347 188.725 210.263 188.406C210.226 188.268 210.147 188.145 210.036 188.054H209.957C209.864 188.027 209.766 188.027 209.673 188.054C209.499 188.118 209.344 188.223 209.22 188.36C209.065 188.522 208.935 188.705 208.834 188.905C208.771 188.999 208.714 189.097 208.664 189.2V189.268C208.66 189.301 208.66 189.336 208.664 189.37C208.659 189.392 208.659 189.415 208.664 189.438H208.097C208.225 189.083 208.401 188.748 208.619 188.44C208.783 188.171 209.005 187.942 209.267 187.767C209.529 187.593 209.827 187.478 210.138 187.43C210.363 187.421 210.582 187.498 210.751 187.646C210.92 187.793 211.025 188.001 211.045 188.224C211.075 188.618 211 189.013 210.83 189.37Z" fill="#C7C7C7"/>
<path d="M213.982 189.302C213.859 189.749 213.648 190.168 213.362 190.534C213.075 190.9 212.72 191.205 212.315 191.434C211.941 191.649 211.828 191.15 212.202 190.946C212.509 190.776 212.776 190.542 212.985 190.261C213.195 189.979 213.341 189.656 213.415 189.313C213.505 188.994 213.505 188.657 213.415 188.338C213.379 188.197 213.295 188.072 213.177 187.986H213.098C213.005 187.959 212.907 187.959 212.814 187.986C212.64 188.05 212.485 188.155 212.361 188.292C212.206 188.454 212.076 188.637 211.975 188.837C211.912 188.931 211.855 189.029 211.805 189.131V189.199C211.801 189.233 211.801 189.268 211.805 189.302C211.805 189.302 211.805 189.302 211.805 189.37H211.238C211.359 189.008 211.535 188.668 211.76 188.36C211.923 188.092 212.142 187.863 212.402 187.689C212.663 187.515 212.958 187.399 213.268 187.351C213.493 187.341 213.714 187.418 213.885 187.565C214.056 187.713 214.164 187.92 214.187 188.145C214.226 188.542 214.156 188.942 213.982 189.302Z" fill="#C7C7C7"/>
<path d="M217.124 189.234C217 189.681 216.789 190.1 216.503 190.466C216.217 190.832 215.862 191.138 215.457 191.366C215.072 191.581 214.958 191.082 215.332 190.878C215.852 190.575 216.253 190.103 216.467 189.54C216.467 189.438 216.535 189.336 216.557 189.245C216.641 188.925 216.641 188.589 216.557 188.27C216.516 188.131 216.433 188.008 216.319 187.918H216.262H216.194C216.101 187.896 216.004 187.896 215.911 187.918C215.737 187.982 215.581 188.087 215.457 188.224C215.301 188.385 215.171 188.569 215.072 188.769C215.008 188.863 214.951 188.962 214.902 189.064V189.132C214.897 189.166 214.897 189.2 214.902 189.234C214.897 189.26 214.897 189.287 214.902 189.313H214.232C214.363 188.956 214.539 188.617 214.754 188.304C214.919 188.035 215.14 187.806 215.402 187.631C215.665 187.457 215.962 187.342 216.274 187.294C216.501 187.285 216.723 187.363 216.894 187.513C217.065 187.663 217.172 187.873 217.192 188.1C217.262 188.478 217.239 188.867 217.124 189.234Z" fill="#C7C7C7"/>
<path d="M215.876 200.926C217.77 205.36 222.749 210.974 223.044 214.535C223.141 215.414 222.955 216.3 222.512 217.066C222.07 217.831 221.393 218.434 220.583 218.787C220.583 218.787 224.064 220.693 223.792 223.97C223.645 225.671 220.821 226.93 220.821 226.93C221.577 227.407 222.188 228.082 222.588 228.882C222.987 229.681 223.161 230.575 223.089 231.466C222.749 233.734 219.97 234.698 219.97 234.698C219.97 234.698 221.842 237.5 220.741 239.745C218.473 244.281 198.446 243.51 195.633 236.003C194.329 232.498 199.217 232.952 199.217 232.952C199.217 232.952 192.345 230.593 192.413 226.454C192.481 222.314 198.786 223.301 198.786 223.301C198.786 223.301 192.174 220.976 192.685 216.667C193.195 212.199 199.353 214.263 199.353 214.263C199.353 214.263 195.01 211.065 196.132 207.866C198.004 202.593 206.18 209.647 210.637 208.774L213.359 201.595L215.876 200.926Z" fill="#E89E95"/>
<path d="M219.642 207.413C218.213 203.058 223.736 197.966 222.976 193.611C221.944 187.714 215.128 193.18 213.336 201.618L213.087 208.422L219.642 207.413Z" fill="#E89E95"/>
<path d="M219.585 234.925C219.6 234.925 219.614 234.931 219.625 234.942C219.636 234.952 219.641 234.967 219.641 234.982C219.641 234.997 219.636 235.011 219.625 235.022C219.614 235.032 219.6 235.038 219.585 235.038C212.663 236.463 205.472 235.747 198.968 232.986C198.763 232.895 198.831 232.521 199.07 232.577C205.757 234.355 212.669 235.146 219.585 234.925Z" fill="#263238"/>
<path d="M220.923 226.987C221.002 226.987 221.002 227.111 220.923 227.123C213.278 228.618 205.35 227.331 198.57 223.494C198.332 223.346 198.264 222.995 198.57 223.131C203.265 225.524 214.436 227.281 220.923 226.987Z" fill="#263238"/>
<path d="M198.923 213.831C205.591 217.528 212.77 218.708 220.311 218.867C220.402 218.867 220.391 219.003 220.311 219.025C216.603 219.955 211.806 219.354 208.109 218.572C204.663 217.897 201.453 216.333 198.798 214.035C198.696 213.979 198.787 213.752 198.923 213.831Z" fill="#263238"/>
<path d="M123.791 166.632C124.074 167.845 132.863 175.534 138.454 175.273C140.257 175.194 137.15 165.52 137.15 165.52L137.32 164.795L139.588 154.588L127.624 146.888L125.889 145.867C125.889 145.867 125.446 148.702 124.936 152.229C124.936 152.388 124.936 152.558 124.857 152.728C124.777 152.898 124.789 153.114 124.766 153.307C124.675 153.828 124.596 154.373 124.528 154.906C124.46 155.439 124.414 155.711 124.369 156.142C124.324 156.573 124.267 156.992 124.21 157.423C123.858 160.479 123.717 163.556 123.791 166.632Z" fill="#E89E95"/>
<path d="M124.959 152.229C125.986 155.095 127.623 157.703 129.757 159.872C131.892 162.042 134.472 163.722 137.32 164.795L139.589 154.588L127.624 146.888L125.889 145.867C125.889 145.867 125.47 148.702 124.959 152.229Z" fill="#263238"/>
<path d="M155.352 141.819C153.98 160.111 142.877 161.358 138.919 161.098C135.347 160.825 123.19 159.442 122.657 141.104C122.124 122.766 131.071 117.618 139.293 117.81C147.515 118.003 156.713 123.515 155.352 141.819Z" fill="#E89E95"/>
<path d="M123.145 139.834C127.443 140.571 128.52 133.767 128.52 133.767C128.52 133.767 133.488 134.107 135.132 126.271C135.826 128.012 136.914 129.568 138.312 130.818C139.709 132.067 141.376 132.976 143.184 133.472C144.556 133.903 140.439 129.503 140.439 129.503C140.439 129.503 145.248 135.524 156.033 135.286C156.793 135.286 157.008 123.946 149.41 118.865C141.812 113.785 134.055 114.703 128.135 119.058C126.565 119.582 125.148 120.484 124.009 121.684C122.87 122.885 122.044 124.347 121.603 125.942C120.004 131.612 121.467 139.55 123.145 139.834Z" fill="#263238"/>
<path d="M125.775 141.455C125.775 141.455 122.713 135.161 119.923 136.148C117.134 137.135 118.789 145.822 121.591 147.489C121.94 147.72 122.333 147.879 122.745 147.954C123.157 148.03 123.581 148.022 123.99 147.929C124.399 147.837 124.785 147.663 125.125 147.418C125.465 147.173 125.752 146.861 125.968 146.502L125.775 141.455Z" fill="#E89E95"/>
<path d="M120.445 138.62C120.445 138.62 120.377 138.62 120.445 138.7C122.419 139.902 123.212 142.034 123.655 144.2C123.568 143.968 123.431 143.758 123.255 143.584C123.078 143.41 122.866 143.277 122.633 143.194C122.4 143.111 122.151 143.08 121.904 143.103C121.658 143.126 121.419 143.202 121.205 143.327C121.137 143.327 121.205 143.451 121.205 143.44C121.597 143.384 121.996 143.45 122.349 143.628C122.702 143.807 122.992 144.089 123.178 144.438C123.48 145.024 123.719 145.64 123.893 146.275C123.961 146.479 124.324 146.434 124.278 146.207V146.151C124.777 143.474 123.292 139.369 120.445 138.62Z" fill="#263238"/>
<path d="M152.143 138.212C151.723 138.099 151.349 137.929 151.009 137.781C150.567 137.69 150.168 137.454 149.875 137.112C149.803 136.986 149.776 136.84 149.796 136.696C149.817 136.553 149.884 136.42 149.988 136.318C150.223 136.151 150.498 136.049 150.785 136.023C151.072 135.997 151.36 136.048 151.621 136.171C152.189 136.337 152.674 136.709 152.982 137.214C153.054 137.338 153.087 137.48 153.075 137.623C153.063 137.765 153.007 137.9 152.915 138.01C152.823 138.119 152.699 138.197 152.561 138.234C152.423 138.27 152.277 138.262 152.143 138.212Z" fill="#263238"/>
<path d="M140.427 136.454C140.836 136.449 141.245 136.423 141.652 136.375C142.1 136.407 142.546 136.292 142.922 136.046C143.026 135.945 143.093 135.812 143.114 135.668C143.134 135.525 143.107 135.379 143.035 135.252C142.857 135.025 142.621 134.849 142.352 134.743C142.083 134.638 141.79 134.606 141.504 134.651C140.916 134.653 140.349 134.875 139.917 135.275C139.819 135.373 139.753 135.498 139.727 135.634C139.702 135.77 139.717 135.911 139.772 136.038C139.827 136.165 139.919 136.272 140.036 136.347C140.152 136.421 140.289 136.458 140.427 136.454Z" fill="#263238"/>
<path d="M142.378 141.422C142.378 141.365 142.276 141.422 142.264 141.512C142.162 142.76 141.833 144.166 140.654 144.45V144.518C142.049 144.484 142.48 142.613 142.378 141.422Z" fill="#263238"/>
<path d="M141.425 139.993C139.441 139.607 138.817 143.588 140.654 143.951C142.492 144.314 143.081 140.322 141.425 139.993Z" fill="#263238"/>
<path d="M140.609 140.083C140.223 140.254 139.815 140.594 139.395 140.571C138.976 140.548 138.601 140.061 138.352 139.619C138.352 139.619 138.284 139.619 138.273 139.619C138.136 140.378 138.273 141.206 139.112 141.444C139.951 141.683 140.484 141.081 140.79 140.31C140.847 140.242 140.767 140.015 140.609 140.083Z" fill="#263238"/>
<path d="M149.103 142.408C149.103 142.408 149.183 142.476 149.183 142.522C148.933 143.758 148.865 145.198 149.908 145.788C149.908 145.788 149.908 145.867 149.908 145.856C148.559 145.447 148.672 143.52 149.103 142.408Z" fill="#263238"/>
<path d="M150.419 141.297C152.426 141.478 151.916 145.482 150.056 145.312C148.196 145.141 148.729 141.15 150.419 141.297Z" fill="#263238"/>
<path d="M151.212 141.671C151.507 141.921 151.768 142.34 152.142 142.42C152.516 142.499 152.959 142.102 153.276 141.728C153.276 141.728 153.344 141.728 153.276 141.728C153.197 142.499 152.845 143.27 152.142 143.316C151.439 143.361 151.008 142.646 151.008 141.864C150.963 141.819 151.099 141.569 151.212 141.671Z" fill="#263238"/>
<path d="M140.859 151.39C141.086 151.73 141.301 152.184 141.732 152.308C142.188 152.403 142.659 152.403 143.116 152.308C143.116 152.308 143.184 152.308 143.116 152.388C142.89 152.59 142.614 152.728 142.317 152.788C142.02 152.848 141.712 152.827 141.426 152.728C141.188 152.613 140.989 152.43 140.856 152.202C140.722 151.973 140.66 151.71 140.677 151.447C140.723 151.345 140.825 151.333 140.859 151.39Z" fill="#263238"/>
<path d="M145.497 149.938C144.963 150.498 144.296 150.911 143.557 151.14C143.156 151.27 142.723 151.27 142.321 151.14C141.459 150.811 141.516 150.006 141.754 149.314C141.884 148.956 142.055 148.613 142.265 148.294C143.139 149.172 144.272 149.748 145.497 149.938Z" fill="#263238"/>
<path d="M143.557 151.141C143.156 151.271 142.723 151.271 142.321 151.141C141.459 150.812 141.516 150.007 141.754 149.315C142.214 149.379 142.64 149.592 142.965 149.922C143.291 150.252 143.5 150.68 143.557 151.141Z" fill="#FF9CBD"/>
<path d="M155.056 123.674C152.947 123.175 141.221 123.515 135.948 125.783C130.674 128.051 121.318 135.638 120.842 135.99C120.366 136.341 117.95 117.051 133.623 113.524C150.724 109.747 155.056 123.674 155.056 123.674Z" fill="#43DEE2"/>
<path d="M121.738 135.264C121.738 135.264 132.104 121.655 137.865 118.468C143.626 115.281 156.52 113.58 164.492 117.096C170.718 119.829 155.533 127.836 155.533 127.836C155.394 127.176 155.101 126.559 154.68 126.033C154.258 125.507 153.72 125.087 153.106 124.808C149.228 123.265 141.857 124.456 137.649 125.862C132.364 127.665 121.738 135.264 121.738 135.264Z" fill="#43DEE2"/>
<path opacity="0.2" d="M121.738 135.264C121.738 135.264 132.104 121.655 137.865 118.468C143.626 115.281 156.52 113.58 164.492 117.096C170.718 119.829 155.533 127.836 155.533 127.836C155.394 127.176 155.101 126.559 154.68 126.033C154.258 125.507 153.72 125.087 153.106 124.808C149.228 123.265 141.857 124.456 137.649 125.862C132.364 127.665 121.738 135.264 121.738 135.264Z" fill="black"/>
<path d="M137.116 165.498L134.644 173.878L123.632 164.624L121.103 168.163C121.103 168.163 132.444 183.472 132.444 182.724L135.109 175.455L140.371 179.843L138.828 167.72L137.116 165.498Z" fill="#43DEE2"/>
<path d="M140.008 173.799C139.679 171.814 139.418 169.796 138.998 167.822C138.998 167.754 138.874 167.732 138.862 167.822C138.647 169.796 139.917 177.417 140.087 179.254C139.86 179.061 135.222 175.421 135.188 175.489C134.576 176.623 132.614 181.964 132.489 182.44C130.686 180.002 123.847 171.202 121.783 168.934C121.773 168.919 121.757 168.909 121.739 168.905C121.721 168.902 121.702 168.906 121.687 168.917C121.672 168.927 121.662 168.943 121.659 168.961C121.655 168.98 121.659 168.998 121.67 169.013C123.303 171.61 132.376 183.484 132.489 183.438C133.549 180.926 134.476 178.359 135.267 175.749C136.073 176.566 140.802 180.728 140.79 180.422C140.666 178.369 140.325 175.84 140.008 173.799Z" fill="#263238"/>
</svg>
