<svg width="190" height="44" viewBox="0 0 190 44" fill="none" xmlns="http://www.w3.org/2000/svg">
<path d="M67.9219 19.1426L64.6846 12.5156H60.5205L65.7129 21.6816L60.3809 31H64.5957L67.9727 24.2715L71.3623 31H75.5264L70.1943 21.6816L75.3994 12.5156H71.21L67.9219 19.1426ZM78.1416 11.5V14.3818H82.2549V28.1309H78.1416V31H89.7578V28.1309H85.8223V11.5H78.1416ZM93.96 17.2637V20.1455H97.8701V28.1309H93.96V31H105.157V28.1309H101.438V17.2637H93.96ZM97.6162 13.7471C97.6162 14.0179 97.6628 14.2718 97.7559 14.5088C97.8574 14.7373 97.9971 14.932 98.1748 15.0928C98.3525 15.262 98.5641 15.3932 98.8096 15.4863C99.0635 15.5794 99.3428 15.626 99.6475 15.626C100.274 15.626 100.769 15.4525 101.133 15.1055C101.505 14.75 101.691 14.2972 101.691 13.7471C101.691 13.1969 101.505 12.7484 101.133 12.4014C100.769 12.0459 100.274 11.8682 99.6475 11.8682C99.3428 11.8682 99.0635 11.9147 98.8096 12.0078C98.5641 12.1009 98.3525 12.2279 98.1748 12.3887C97.9971 12.5579 97.8574 12.7611 97.7559 12.998C97.6628 13.2266 97.6162 13.4762 97.6162 13.7471ZM108.636 31H112.178V21.2373C112.296 21.0511 112.427 20.8818 112.571 20.7295C112.715 20.5771 112.876 20.446 113.054 20.3359C113.274 20.1836 113.523 20.0693 113.803 19.9932C114.09 19.917 114.404 19.8789 114.742 19.8789C115.148 19.8789 115.512 19.9212 115.834 20.0059C116.156 20.082 116.431 20.2217 116.659 20.4248C116.888 20.6279 117.061 20.9072 117.18 21.2627C117.307 21.6097 117.37 22.054 117.37 22.5957V31H120.899V22.5449C120.899 21.5462 120.781 20.6999 120.544 20.0059C120.315 19.3034 119.994 18.7279 119.579 18.2793C119.156 17.8392 118.657 17.5176 118.081 17.3145C117.506 17.1113 116.871 17.0098 116.177 17.0098C115.635 17.0098 115.123 17.0859 114.641 17.2383C114.158 17.3906 113.714 17.6107 113.308 17.8984C113.071 18.0677 112.846 18.2581 112.635 18.4697C112.423 18.6813 112.229 18.9141 112.051 19.168L111.835 17.2637H108.636V31ZM133.112 27.2295C133.112 27.4411 133.057 27.6357 132.947 27.8135C132.846 27.9912 132.689 28.1478 132.478 28.2832C132.257 28.4186 131.974 28.5286 131.627 28.6133C131.288 28.6895 130.891 28.7275 130.434 28.7275C130.053 28.7275 129.68 28.6895 129.316 28.6133C128.961 28.5371 128.644 28.4144 128.364 28.2451C128.085 28.0843 127.856 27.8727 127.679 27.6104C127.501 27.3395 127.399 27.0179 127.374 26.6455H124.01C124.01 27.2041 124.145 27.7627 124.416 28.3213C124.695 28.8714 125.102 29.3623 125.635 29.7939C126.168 30.234 126.828 30.5895 127.615 30.8604C128.411 31.1312 129.325 31.2666 130.357 31.2666C131.297 31.2666 132.147 31.165 132.909 30.9619C133.671 30.7503 134.323 30.4583 134.864 30.0859C135.397 29.7135 135.808 29.2734 136.096 28.7656C136.392 28.2493 136.54 27.6865 136.54 27.0771C136.54 26.417 136.392 25.8499 136.096 25.376C135.808 24.8936 135.406 24.4831 134.89 24.1445C134.373 23.8145 133.76 23.5436 133.049 23.332C132.338 23.1204 131.568 22.9469 130.738 22.8115C130.163 22.7269 129.689 22.6296 129.316 22.5195C128.944 22.401 128.652 22.2699 128.44 22.126C128.22 21.9906 128.068 21.8382 127.983 21.6689C127.899 21.4912 127.856 21.3008 127.856 21.0977C127.856 20.8945 127.903 20.7041 127.996 20.5264C128.098 20.3402 128.242 20.1794 128.428 20.0439C128.631 19.8916 128.893 19.7731 129.215 19.6885C129.536 19.6038 129.913 19.5615 130.345 19.5615C130.853 19.5615 131.284 19.625 131.64 19.752C132.004 19.8789 132.291 20.0482 132.503 20.2598C132.655 20.4206 132.77 20.6025 132.846 20.8057C132.922 21.0003 132.96 21.2119 132.96 21.4404H136.489C136.489 20.8057 136.35 20.2174 136.07 19.6758C135.791 19.1341 135.389 18.6644 134.864 18.2666C134.331 17.8773 133.684 17.5726 132.922 17.3525C132.16 17.124 131.301 17.0098 130.345 17.0098C129.431 17.0098 128.61 17.124 127.882 17.3525C127.154 17.5811 126.536 17.89 126.028 18.2793C125.521 18.6686 125.131 19.1214 124.86 19.6377C124.59 20.154 124.454 20.6956 124.454 21.2627C124.454 21.8467 124.585 22.363 124.848 22.8115C125.118 23.2601 125.491 23.6536 125.965 23.9922C126.439 24.3392 127.006 24.6354 127.666 24.8809C128.335 25.1178 129.071 25.3167 129.875 25.4775C130.51 25.596 131.035 25.7145 131.449 25.833C131.864 25.9515 132.198 26.0785 132.452 26.2139C132.698 26.3577 132.867 26.5101 132.96 26.6709C133.062 26.8317 133.112 27.0179 133.112 27.2295ZM139.384 24.0049V24.2715C139.384 25.2786 139.528 26.2096 139.815 27.0645C140.103 27.9108 140.526 28.6471 141.085 29.2734C141.635 29.8997 142.312 30.3906 143.116 30.7461C143.929 31.0931 144.851 31.2666 145.884 31.2666C146.908 31.2666 147.822 31.0931 148.626 30.7461C149.43 30.3906 150.107 29.8997 150.657 29.2734C151.207 28.6471 151.626 27.9108 151.914 27.0645C152.202 26.2096 152.346 25.2786 152.346 24.2715V24.0049C152.346 23.0062 152.202 22.0837 151.914 21.2373C151.626 20.3825 151.207 19.6419 150.657 19.0156C150.099 18.3893 149.417 17.8984 148.613 17.543C147.809 17.1875 146.891 17.0098 145.858 17.0098C144.826 17.0098 143.908 17.1875 143.104 17.543C142.308 17.8984 141.635 18.3893 141.085 19.0156C140.526 19.6419 140.103 20.3825 139.815 21.2373C139.528 22.0837 139.384 23.0062 139.384 24.0049ZM142.913 24.2715V24.0049C142.913 23.4463 142.968 22.9173 143.078 22.418C143.188 21.9186 143.362 21.4785 143.599 21.0977C143.836 20.7168 144.14 20.4163 144.513 20.1963C144.885 19.9762 145.334 19.8662 145.858 19.8662C146.392 19.8662 146.844 19.9762 147.217 20.1963C147.589 20.4163 147.894 20.7168 148.131 21.0977C148.359 21.4785 148.529 21.9186 148.639 22.418C148.749 22.9173 148.804 23.4463 148.804 24.0049V24.2715C148.804 24.847 148.749 25.3887 148.639 25.8965C148.529 26.3958 148.359 26.8317 148.131 27.2041C147.894 27.585 147.589 27.8854 147.217 28.1055C146.844 28.3255 146.4 28.4355 145.884 28.4355C145.351 28.4355 144.894 28.3255 144.513 28.1055C144.14 27.8854 143.836 27.585 143.599 27.2041C143.362 26.8317 143.188 26.3958 143.078 25.8965C142.968 25.3887 142.913 24.847 142.913 24.2715ZM158.896 31H162.438V19.8662H167.39V17.2637H162.438V16.5146C162.438 16.1084 162.489 15.7445 162.591 15.4229C162.701 15.1012 162.866 14.8304 163.086 14.6104C163.331 14.348 163.661 14.1491 164.076 14.0137C164.491 13.8783 164.994 13.8105 165.587 13.8105C166.137 13.8105 166.615 13.8359 167.021 13.8867C167.428 13.9375 167.792 13.9967 168.113 14.0645L168.342 11.2969C168.054 11.2461 167.775 11.1995 167.504 11.1572C167.242 11.1149 166.979 11.0768 166.717 11.043C166.454 11.0091 166.184 10.9837 165.904 10.9668C165.633 10.9414 165.35 10.9287 165.054 10.9287C164.114 10.9287 163.264 11.0514 162.502 11.2969C161.74 11.5339 161.093 11.8893 160.56 12.3633C160.026 12.8372 159.616 13.4212 159.328 14.1152C159.04 14.8092 158.896 15.609 158.896 16.5146V17.2637H155.291V19.8662H158.896V31ZM177.571 13.8994H174.042V17.2637H170.906V19.8662H174.042V26.1123C174.042 27.0179 174.16 27.7965 174.397 28.4482C174.634 29.0915 174.973 29.6204 175.413 30.0352C175.845 30.4583 176.365 30.7715 176.975 30.9746C177.592 31.1693 178.278 31.2666 179.031 31.2666C179.421 31.2666 179.814 31.2454 180.212 31.2031C180.618 31.1693 181.007 31.1185 181.38 31.0508C181.752 30.9831 182.104 30.8984 182.434 30.7969C182.764 30.6868 183.051 30.5599 183.297 30.416L182.954 27.9912C182.793 28.0335 182.599 28.0758 182.37 28.1182C182.15 28.1605 181.913 28.1986 181.659 28.2324C181.397 28.2747 181.122 28.3086 180.834 28.334C180.555 28.3594 180.28 28.3721 180.009 28.3721C179.636 28.3721 179.298 28.3298 178.993 28.2451C178.697 28.1605 178.443 28.0166 178.231 27.8135C178.02 27.6188 177.855 27.3564 177.736 27.0264C177.626 26.6878 177.571 26.2689 177.571 25.7695V19.8662H182.7V17.2637H177.571V13.8994Z" fill="#173E63"/>
<rect width="30.0288" height="6.00483" rx="3.00242" transform="matrix(0.674752 -0.738045 0.792278 0.61016 16.4774 22.312)" fill="#173E63"/>
<rect width="30.0288" height="6.00483" rx="3.00242" transform="matrix(0.674752 0.738045 -0.792278 0.61016 21.2554 18.0364)" fill="#173E63"/>
<rect width="21.6369" height="6.00489" rx="3.00244" transform="matrix(-0.674757 -0.73804 -0.792283 0.610154 19.3572 15.9689)" fill="url(#paint0_linear)"/>
<rect width="21.6369" height="6.00489" rx="3.00244" transform="matrix(-0.674757 0.73804 0.792283 0.610154 14.7061 24.3672)" fill="#173E63"/>
<defs>
<linearGradient id="paint0_linear" x1="21.7115" y1="2.87799" x2="-15.7795" y2="2.48155" gradientUnits="userSpaceOnUse">
<stop offset="0.09375" stop-color="#43DEE2"/>
<stop offset="1" stop-color="#173E63"/>
</linearGradient>
</defs>
</svg>
