<svg width="20" height="28" viewBox="0 0 20 28" fill="none" xmlns="http://www.w3.org/2000/svg">
<path fill-rule="evenodd" clip-rule="evenodd" d="M10 26.3278C5.14557 26.3278 1 25.5724 1 22.547C1 19.5217 5.11927 16.7289 10 16.7289C14.8544 16.7289 19 19.4946 19 22.52C19 25.5441 14.8807 26.3278 10 26.3278Z" stroke="#8F8F8F" stroke-width="1.5" stroke-linecap="round" stroke-linejoin="round"/>
<path fill-rule="evenodd" clip-rule="evenodd" d="M9.9904 12.5366C13.1761 12.5366 15.7581 9.95458 15.7581 6.76889C15.7581 3.58321 13.1761 1 9.9904 1C6.80471 1 4.22147 3.58321 4.22147 6.76889C4.21074 9.94382 6.77483 12.5258 9.94975 12.5366C9.9641 12.5366 9.97725 12.5366 9.9904 12.5366Z" stroke="#8F8F8F" stroke-width="1.5" stroke-linecap="round" stroke-linejoin="round"/>
</svg>
